<?xml version="1.0" encoding="UTF-8"?>
<svg width="110px" height="23px" viewBox="0 0 110 23" version="1.1" xmlns="http://www.w3.org/2000/svg" xmlns:xlink="http://www.w3.org/1999/xlink">
    <!-- Generator: Sketch 52.1 (67048) - http://www.bohemiancoding.com/sketch -->
    <title>Fill 74</title>
    <desc>Created with Sketch.</desc>
    <g id="Promeθeus" stroke="none" stroke-width="1" fill="none" fill-rule="evenodd" opacity="0.5">
        <g id="Custom-WEB-Copy-22" transform="translate(-1070.000000, -4021.000000)" fill="#FFFFFF">
            <path d="M1114.17683,4041.03947 C1115.12276,4041.03947 1116.74873,4040.73962 1118.02906,4038.73558 C1117.29788,4037.14734 1116.77532,4033.93587 1116.70271,4032.76643 C1116.32537,4026.7853 1118.68251,4021.15999 1121.26361,4021.00507 C1123.15444,4020.89312 1124.66895,4022.64328 1124.84279,4025.47893 C1125.30808,4032.93036 1122.76789,4036.04087 1121.49677,4038.72458 C1121.71152,4039.76508 1123.51747,4041.53523 1125.22116,4041.53523 C1125.85007,4041.53523 1126.61091,4041.22738 1126.80214,4040.9775 C1126.67533,4040.54871 1126.54648,4039.99297 1126.54648,4039.18936 C1126.54648,4034.87043 1129.38733,4031.23017 1131.84878,4031.23017 C1133.80506,4031.23017 1134.94221,4033.75896 1134.94221,4035.42816 C1134.94221,4037.39922 1133.23648,4039.00645 1130.71367,4040.54871 C1131.15646,4040.9775 1131.97354,4041.28935 1132.67097,4041.28935 C1136.2706,4041.28935 1138.1553,4037.03139 1139.54913,4033.14325 C1139.8007,4032.40161 1140.24554,4031.35511 1141.12704,4031.35511 C1142.64256,4031.35511 1143.27557,4041.10244 1145.79327,4041.10244 C1146.87009,4041.10244 1147.75159,4038.94048 1147.75159,4037.27927 C1147.75159,4036.04386 1147.30982,4035.91992 1147.30982,4034.13078 C1147.30982,4032.15873 1148.38357,4030.49452 1149.83876,4030.49452 C1150.72129,4030.49452 1151.04034,4031.35511 1151.04034,4032.40161 C1151.04034,4036.35072 1148.13303,4043.6922 1143.84721,4043.6922 C1140.62186,4043.6922 1140.87343,4038.2638 1139.73934,4038.2638 C1138.47129,4038.2638 1136.70419,4043.75417 1130.4621,4043.75417 C1129.44664,4043.75417 1128.37698,4043.26141 1127.49445,4042.27188 C1125.98199,4043.26141 1124.71701,4043.6922 1123.26488,4043.6922 C1120.93126,4043.6922 1119.91988,4041.34832 1118.97498,4041.34832 C1117.8368,4041.34832 1116.57898,4043.75417 1112.78709,4043.75417 C1109.7591,4043.75417 1109.25291,4039.81006 1108.18324,4039.81006 C1107.23425,4039.81006 1105.78315,4043.75417 1104.20626,4043.75417 C1101.55153,4043.75417 1100.98807,4036.90845 1098.64933,4036.90845 C1096.81986,4036.90845 1091.03692,4043.86112 1089.4672,4043.7022 C1088.83624,4043.63823 1088.57036,4043.17745 1088.63683,4042.56074 C1088.7258,4041.70715 1089.47845,4039.42225 1089.78217,4038.34176 C1090.29246,4036.46566 1090.76082,4034.40965 1091.02261,4033.75396 C1091.28235,4033.09228 1091.98387,4032.6205 1092.54632,4032.67148 C1092.82958,4032.69747 1092.91446,4033.21422 1093.00241,4033.64102 C1093.32044,4035.16629 1093.76631,4036.72154 1094.26841,4036.72154 C1095.15503,4036.72154 1098.08382,4031.23017 1099.78649,4031.23017 C1101.87264,4031.23017 1102.12216,4039.86803 1104.95994,4039.86803 C1105.90893,4039.86803 1106.60636,4038.75956 1107.23425,4037.39922 C1107.29867,4035.11231 1107.92861,4031.85087 1109.82251,4031.85087 C1111.14885,4031.85087 1111.78083,4034.74749 1110.83081,4037.27927 C1110.83081,4040.29883 1112.84845,4041.03947 1114.17683,4041.03947 Z M1164.66577,4033.63802 C1163.88346,4036.8095 1161.512,4041.47526 1157.97373,4041.47526 C1157.15461,4041.47526 1155.70248,4041.16441 1155.70248,4040.3618 C1155.70248,4039.49721 1161.26044,4039.37827 1161.26044,4035.24225 C1161.26044,4033.70199 1159.80933,4031.54002 1157.66183,4031.54002 C1154.822,4031.54002 1152.05172,4034.56657 1152.05172,4038.75956 C1152.05172,4042.51976 1154.44159,4043.75417 1156.83964,4043.75417 C1161.00683,4043.75417 1163.53168,4040.42077 1164.85496,4037.6471 C1165.49,4039.49721 1165.86224,4043.75417 1167.44628,4043.75417 C1168.07519,4043.75417 1168.51901,4043.44532 1169.2778,4041.78212 C1171.16556,4037.6471 1172.9981,4032.89737 1175.525,4032.89737 C1176.46888,4032.89737 1175.90337,4034.56657 1178.17462,4034.56657 C1179.2453,4034.56657 1180,4033.70199 1180,4032.71046 C1180,4031.29014 1178.67673,4030.18367 1176.65909,4030.18367 C1170.72583,4030.18367 1169.46698,4038.8825 1168.51901,4038.8825 C1166.94111,4038.8825 1167.44628,4031.91084 1166.30708,4031.91084 C1165.29673,4031.91084 1164.80076,4033.08728 1164.66577,4033.63802 Z M1122.79959,4027.14413 C1122.68915,4025.41895 1122.26169,4024.64033 1121.31372,4024.7033 C1120.05692,4024.77826 1119.47607,4028.64341 1119.73274,4032.70546 C1119.89739,4035.35719 1120.3003,4035.765 1120.67663,4035.73901 C1121.37201,4035.69903 1123.03991,4030.9633 1122.79959,4027.14413 Z M1112.5345,4023.52086 C1112.44553,4022.53134 1111.65198,4021.85766 1110.57823,4021.85766 C1109.38073,4021.85766 1108.25278,4023.08507 1108.37243,4024.62933 C1108.44912,4025.64685 1109.0627,4026.48444 1110.26939,4026.48444 C1111.65198,4026.48444 1112.66131,4024.94218 1112.5345,4023.52086 Z M1132.16682,4036.10284 C1132.16682,4035.05834 1131.59517,4034.19275 1130.90592,4034.19275 C1130.33223,4034.19275 1129.01202,4034.80846 1129.01202,4036.78251 C1129.01202,4038.32977 1129.57447,4039.06442 1129.83115,4039.37827 C1131.65857,4038.82153 1132.16682,4037.33725 1132.16682,4036.10284 Z M1156.83964,4034.01184 C1158.16598,4034.01184 1158.54742,4035.5461 1158.2304,4036.47566 C1157.91339,4037.39922 1156.7793,4038.45171 1155.01221,4038.75956 C1154.63179,4037.83201 1154.44159,4034.01184 1156.83964,4034.01184 Z M1084.16694,4029.63094 C1083.98696,4029.07021 1083.46133,4027.80981 1083.31817,4026.87925 C1083.00218,4024.81924 1084.10456,4023.46089 1085.11696,4023.15004 C1086.2531,4022.84019 1086.69691,4023.39792 1087.13562,4024.6943 C1087.7042,4026.66736 1087.76862,4029.25512 1087.57637,4032.95734 C1087.32787,4038.01592 1084.73859,4044.12499 1078.3022,4043.99805 C1072.74629,4043.87911 1070.28791,4040.3618 1070.03225,4034.99537 C1069.91158,4032.46558 1070.09565,4029.93779 1071.16839,4026.3615 C1071.73696,4024.44542 1072.24418,4023.76475 1074.00923,4023.39792 C1075.39591,4023.15004 1075.27115,4024.56736 1074.95618,4026.23756 C1074.26591,4029.93779 1073.94378,4031.72393 1074.19944,4035.91992 C1074.44691,4040.3618 1076.53409,4042.08997 1078.80636,4042.08997 C1082.21476,4042.15394 1083.72722,4039.37827 1084.36227,4035.36419 C1084.86335,4032.15873 1084.486,4030.61646 1084.16694,4029.63094 Z" id="Fill-74"></path>
        </g>
    </g>
</svg>