<?xml version="1.0" encoding="UTF-8"?>
<svg width="119px" height="22px" viewBox="0 0 119 22" version="1.1" xmlns="http://www.w3.org/2000/svg" xmlns:xlink="http://www.w3.org/1999/xlink">
    <!-- Generator: Sketch 52.1 (67048) - http://www.bohemiancoding.com/sketch -->
    <title>Group 19</title>
    <desc>Created with Sketch.</desc>
    <g id="Promeθeus" stroke="none" stroke-width="1" fill="none" fill-rule="evenodd">
        <g id="Custom-WEB-Copy-22" transform="translate(-796.000000, -4023.000000)" fill="#FFFFFF">
            <g id="Group-19" transform="translate(796.000000, 4023.000000)">
                <polyline id="Fill-2" points="15.7269894 18.1088235 15.7269894 20.6808824 -4.28990177e-13 20.6808824 -4.28990177e-13 3 2.83131383 3 2.83131383 18.1088235 15.7269894 18.1088235"></polyline>
                <polyline id="Fill-3" points="13.2015 9.10758824 16.3467713 3 13.3591117 3 11 9.10758824 13.2015 9.10758824"></polyline>
                <path d="M39.6795213,5.39905882 C38.6597926,3.75941176 37.1697606,2.37988235 35.4157766,1.44035294 C33.6617926,0.500823529 31.6438564,-1.88293825e-13 29.6252872,-1.88293825e-13 C27.6067181,-1.88293825e-13 25.5881489,0.500823529 23.8341649,1.44035294 C22.0801809,2.37988235 20.5907819,3.75941176 19.5710532,5.39905882 C18.5506915,7.03935294 18,8.94041176 18,10.8421176 C18,12.7438235 18.5506915,14.6448824 19.5710532,16.2851765 C20.5907819,17.9254706 22.0801809,19.3043529 23.8341649,20.2438824 C25.5881489,21.1840588 27.6067181,21.6848824 29.6252872,21.6848824 C31.6438564,21.6848824 33.6617926,21.1840588 35.4157766,20.2438824 C37.1697606,19.3043529 38.6597926,17.9254706 39.6795213,16.2851765 C40.699883,14.6448824 41.2499415,12.7438235 41.2499415,10.8421176 C41.2499415,8.94041176 40.699883,7.03935294 39.6795213,5.39905882 Z M37.2324255,15.1715882 C36.4709521,16.4579412 35.3575426,17.5430588 34.0441117,18.2832941 C32.7300479,19.0235294 31.2159628,19.4188824 29.7012447,19.4188824 C28.1865266,19.4188824 26.6724415,19.0235294 25.3583777,18.2832941 C24.0443138,17.5430588 22.9315372,16.4579412 22.1700638,15.1715882 C21.4085904,13.8852353 20.9996862,12.3963529 20.9996862,10.9081176 C20.9996862,9.41923529 21.4085904,7.931 22.1700638,6.64464706 C22.9315372,5.35764706 24.0443138,4.27317647 25.3583777,3.53294118 C26.6724415,2.79205882 28.1865266,2.39735294 29.7012447,2.39735294 C31.2159628,2.39735294 32.7300479,2.79205882 34.0441117,3.53294118 C35.3575426,4.27317647 36.4709521,5.35764706 37.2324255,6.64464706 C37.993266,7.931 38.4028032,9.41923529 38.4028032,10.9081176 C38.4028032,12.3963529 37.993266,13.8852353 37.2324255,15.1715882 Z" id="Fill-4"></path>
                <path d="M60.8302713,10.6249412 C60.3194574,11.7767059 59.350367,12.4425294 58.5926915,12.845 C57.835016,13.2481176 57.2887553,13.3878824 56.7386968,13.3671765 L62.2430798,20.6808824 L59.0978085,20.6808824 L53.7744574,13.6085294 L46.8306809,13.6085294 L46.8306809,20.6808824 L44,20.6808824 L44,3 L55.3233564,3 C56.4671489,3 57.6286649,3.231 58.6521915,3.81982353 C59.6763511,4.40864706 60.5625213,5.30288235 60.9790213,6.56917647 C61.3955213,7.83547059 61.3417181,9.47317647 60.8302713,10.6249412 Z M57.6641117,10.5039412 C58.2610106,9.98823529 58.6135798,9.14123529 58.5825638,8.30135294 C58.5521809,7.46147059 58.1382128,6.62870588 57.5457447,6.12141176 C56.9532766,5.61411765 56.196234,5.57205882 55.4803351,5.57205882 L46.8306809,5.57205882 L46.8306809,11.0371176 L55.4803351,11.0371176 C56.2449734,11.0371176 57.0678457,11.0196471 57.6641117,10.5039412 Z" id="Fill-5"></path>
                <polyline id="Fill-6" points="77.4234734 10.5550588 77.4234734 12.9653529 67.8306809 12.9653529 67.8306809 18.1088235 80.7263564 18.1088235 80.7263564 20.6808824 65 20.6808824 65 3 80.7263564 3 80.7263564 5.57205882 67.8306809 5.57205882 67.8306809 10.5550588 77.4234734 10.5550588"></polyline>
                <polyline id="Fill-7" points="76.9759521 -1.22124533e-13 72.7299309 -1.22124533e-13 71 2.24982353 76.9759521 -1.22124533e-13"></polyline>
                <path d="M86.0720585,16.1799412 L83.8306809,20.6808824 L81,20.6808824 L89.806633,3 L92.6373138,3 L101.443947,20.6808824 L98.613266,20.6808824 L96.3718883,16.1799412 L86.0720585,16.1799412 Z M91.2219734,5.84188235 L87.1930638,13.9301176 L95.250883,13.9301176 L91.2219734,5.84188235 Z" id="Fill-8"></path>
                <polyline id="Fill-9" points="118.726989 18.1088235 118.726989 20.6808824 103 20.6808824 103 3 105.830681 3 105.830681 18.1088235 118.726989 18.1088235"></polyline>
                <path d="M117.183144,6.52652564 L117.15909,6.10399623 C117.15466,6.02634917 117.160989,5.94870211 117.130606,5.86070211 C117.100223,5.77334917 117.04642,5.6769374 116.991351,5.61352564 C116.935649,5.55076093 116.878048,5.52099623 116.816649,5.51387858 C116.932484,5.47246681 117.035027,5.3909374 117.108452,5.2699374 C117.182511,5.14958446 117.227452,4.98911387 117.22492,4.81764328 C117.223021,4.64552564 117.172383,4.46240799 117.083133,4.32652564 C116.890074,4.03729034 116.550165,3.98746681 116.252665,4.00234917 L115,4.00234917 L115,6.9561727 L115.486128,6.9561727 L115.486128,5.7429374 L116.212154,5.7429374 C116.29191,5.7429374 116.424202,5.7319374 116.556495,5.83740799 C116.73183,6.04899623 116.653973,6.32723152 116.684989,6.56340799 C116.687521,6.70446681 116.700814,6.83776093 116.758415,6.9561727 L117.304043,6.9561727 L117.304043,6.8649374 C117.204032,6.82352564 117.19517,6.67599623 117.183144,6.52652564 Z M116.582447,5.22529034 C116.431165,5.32429034 116.276085,5.32429034 116.167846,5.32234917 L115.48233,5.32234917 L115.48233,4.4229374 C115.781096,4.42681976 116.083027,4.40999623 116.379894,4.43458446 C116.496362,4.44946681 116.631819,4.51676093 116.700181,4.66752564 C116.762846,4.8629374 116.765378,5.07258446 116.582447,5.22529034 Z" id="Fill-10"></path>
                <path d="M118.550484,4.24623529 C118.337803,3.86964706 118.026378,3.55129412 117.657984,3.33388235 C117.28959,3.11647059 116.864229,3 116.438867,3 C116.012872,3 115.587511,3.11647059 115.219117,3.33388235 C114.850723,3.55129412 114.539298,3.86964706 114.326617,4.24623529 C114.113936,4.62282353 114,5.05764706 114,5.49182353 C114,5.92664706 114.113936,6.36147059 114.326617,6.73805882 C114.539298,7.11464706 114.850723,7.433 115.219117,7.64976471 C115.587511,7.86717647 116.012872,7.98364706 116.438867,7.98364706 C116.864229,7.98364706 117.28959,7.86717647 117.657984,7.64976471 C118.026378,7.433 118.337803,7.11464706 118.550484,6.73805882 C118.763165,6.36147059 118.877101,5.92664706 118.877101,5.49182353 C118.877101,5.05764706 118.763165,4.62282353 118.550484,4.24623529 Z M118.258048,6.57564706 C118.077016,6.89529412 117.812431,7.16576471 117.499106,7.34952941 C117.185782,7.53394118 116.824351,7.63294118 116.46292,7.63294118 C116.101489,7.63294118 115.739426,7.53394118 115.426734,7.34952941 C115.11341,7.16576471 114.848824,6.89529412 114.667793,6.57564706 C114.486761,6.25664706 114.389915,5.88717647 114.389915,5.51835294 C114.389915,5.14952941 114.486761,4.78070588 114.667793,4.46105882 C114.848824,4.14205882 115.11341,3.87158824 115.426734,3.68717647 C115.739426,3.50341176 116.101489,3.40441176 116.46292,3.40441176 C116.824351,3.40441176 117.185782,3.50341176 117.499106,3.68717647 C117.812431,3.87158824 118.077016,4.14205882 118.258048,4.46105882 C118.438447,4.78070588 118.535293,5.14952941 118.535293,5.51835294 C118.535293,5.88717647 118.438447,6.25664706 118.258048,6.57564706 Z" id="Fill-11"></path>
            </g>
        </g>
    </g>
</svg>