<?xml version="1.0" encoding="UTF-8"?>
<svg width="124px" height="31px" viewBox="0 0 124 31" version="1.1" xmlns="http://www.w3.org/2000/svg" xmlns:xlink="http://www.w3.org/1999/xlink">
    <!-- Generator: Sketch 52.1 (67048) - http://www.bohemiancoding.com/sketch -->
    <title>Group 19</title>
    <desc>Created with Sketch.</desc>
    <g id="Promeθeus" stroke="none" stroke-width="1" fill="none" fill-rule="evenodd" opacity="0.5">
        <g id="Custom-WEB-Copy-22" transform="translate(-249.000000, -4301.000000)" fill="#FFFFFF">
            <g id="Group-19" transform="translate(249.000000, 4301.000000)">
                <g id="Group">
                    <path d="M69.8091977,19.7215682 C69.8091977,19.9632273 69.7860791,20.2140455 69.7216271,20.4310455 C69.4491073,21.3385 68.512452,22.1071591 67.343209,22.1071591 C66.3694237,22.1071591 65.5917966,21.5491591 65.5917966,20.3718636 C65.5917966,18.5710455 67.5645876,18.0736364 69.8091977,18.0856136 L69.8091977,19.7215682 Z M73.3288362,16.5842273 C73.3288362,13.6131591 72.0664181,11 67.8034802,11 C65.6156158,11 63.8768136,11.6178864 62.9289492,12.1681364 L63.6225085,14.5558409 C64.4891073,14.0055909 65.8706215,13.5504545 67.1771751,13.5504545 C69.3405198,13.5455227 69.6943051,14.7827045 69.6943051,15.5753182 L69.6943051,15.7627273 C64.9788023,15.7549773 62,17.3965682 62,20.74175 C62,22.7849318 63.5181243,24.6998864 66.1550508,24.6998864 C67.7789605,24.6998864 69.1352542,24.0481818 69.9479096,23.0054545 L70.0298757,23.0054545 C70.0298757,23.0054545 70.567209,25.2691591 73.5341017,24.4046818 C73.3799774,23.4612955 73.3288362,22.4545 73.3288362,21.2455 L73.3288362,16.5842273 Z" id="Fill-3"></path>
                    <path d="M0,7 C0,7 3.08038418,19.6952045 3.57218079,21.756 C4.1459435,24.1613182 5.1799774,25.0455227 8.16158192,24.4501818 L10.0846328,16.579 C10.5729266,14.6224773 10.8993898,13.2295909 11.2125424,11.2406591 L11.267887,11.2406591 C11.4871638,13.2500227 11.8017175,14.6288182 12.2031412,16.5853409 C12.2031412,16.5853409 12.9856723,20.1580909 13.387096,22.035 C13.7899209,23.9105 14.9080226,25.0941364 17.8279774,24.4501818 L22.4124746,7 L18.7113898,7 L17.1463277,14.5442727 C16.7245876,16.7396364 16.3448814,18.4566136 16.0492429,20.4659773 L15.9974011,20.4659773 C15.7290847,18.4763409 15.3900113,16.8284091 14.9612655,14.6894091 L13.332452,7 L9.47514124,7 L7.73353672,14.4949545 C7.23963842,16.77275 6.7779661,18.6123182 6.48372881,20.5519318 L6.43118644,20.5519318 C6.1299435,18.7250455 5.72851977,16.4134318 5.29627119,14.2089091 C5.29627119,14.2089091 4.25943503,8.84872727 3.89654237,7" id="Fill-4"></path>
                    <path d="M28.8077966,19.7215682 C28.8077966,19.9632273 28.7874802,20.2140455 28.720226,20.4310455 C28.4477062,21.3385 27.512452,22.1071591 26.343209,22.1071591 C25.367322,22.1071591 24.5924972,21.5491591 24.5924972,20.3718636 C24.5924972,18.5710455 26.563887,18.0736364 28.8077966,18.0856136 L28.8077966,19.7215682 Z M32.327435,16.5842273 C32.327435,13.6131591 31.0657175,11 26.8027797,11 C24.6128136,11 22.876113,11.6178864 21.9268475,12.1681364 L22.6218079,14.5558409 C23.4884068,14.0055909 24.8685198,13.5504545 26.1764746,13.5504545 C28.3405198,13.5455227 28.6943051,14.7827045 28.6943051,15.5753182 L28.6943051,15.7627273 C23.9781017,15.7549773 21,17.3965682 21,20.74175 C21,22.7849318 22.5167232,24.6998864 25.1536497,24.6998864 C26.7761582,24.6998864 28.1338531,24.0481818 28.947209,23.0054545 L29.0263729,23.0054545 C29.0263729,23.0054545 29.5658079,25.2691591 32.5348023,24.4046818 C32.3778757,23.4612955 32.327435,22.4545 32.327435,21.2455 L32.327435,16.5842273 Z" id="Fill-5"></path>
                    <polyline id="Fill-6" points="38.5231412 20.7456818 38.5231412 7 35 7 35 24.4515909 38.5231412 24.4515909"></polyline>
                    <path d="M85,7 L85,19.8748636 C85,21.6467955 85.3313672,22.8917273 86.0431412,23.6519318 C86.6624407,24.3149091 87.684565,24.7453864 88.9091525,24.7453864 C89.9529944,24.7453864 90.9786215,24.5467045 91.4599096,24.3656364 L91.4143729,21.5960682 C91.0556836,21.6848409 90.6409492,21.756 90.0755932,21.756 C88.876226,21.756 88.4741017,20.9838182 88.4741017,19.3894318 L88.4741017,14.4660682 L91.5411751,14.4660682 L91.5411751,11.1265227 L88.4741017,11.1265227 L88.4741017,7" id="Fill-7"></path>
                    <path d="M76,11.2959091 L76,24.4046818 L79.6331299,24.4046818 L79.6331299,17.6917727 C79.6331299,17.3296364 79.6562486,17.0132955 79.7122938,16.7244318 C79.9827119,15.3181591 81.0510734,14.4205682 82.5874124,14.4205682 C83.008452,14.4205682 83.3103955,14.4656591 83.6340565,14.5128636 L83.6340565,11.0810227 C83.3622373,11.0246591 83.175887,11 82.8347119,11 C81.4770169,11 79.9343729,11.8792727 79.2870508,13.7681591 L79.1875706,13.7681591 L79.1875706,11.2959091" id="Fill-8"></path>
                    <path d="M41,11.2959091 L41,24.4046818 L44.5420565,24.4046818 L44.5420565,16.7166818 C44.5420565,16.3566591 44.5826893,15.9740909 44.708791,15.6443636 C45.0030282,14.8700682 45.7190056,13.9633182 46.8609266,13.9633182 C48.2900791,13.9633182 48.9591186,15.1779545 48.9591186,16.9336818 L48.9591186,24.4046818 L52.4969718,24.4046818 L52.4969718,16.6236818 C52.4969718,16.2798636 52.5439096,15.8662955 52.6454915,15.5605227 C52.9355254,14.6798409 53.7068475,13.9633182 54.7703051,13.9633182 C56.219774,13.9633182 56.9147345,15.1582273 56.9147345,17.2218409 L56.9147345,24.4046818 L60.4553898,24.4046818 L60.4553898,16.6842727 C60.4553898,12.6112955 58.3992316,11 56.079661,11 C55.0512316,11 54.2399774,11.2585682 53.5071864,11.7115909 C52.8899887,12.09275 52.3386441,12.6324318 51.8559548,13.3440227 L51.804113,13.3440227 C51.243661,11.9314091 49.9272994,11 48.2109153,11 C46.0069379,11 45.0170395,12.1230455 44.4145537,13.077 L44.3620113,13.077 L44.3620113,11.2959091" id="Fill-9"></path>
                    <path d="M110.040045,10.1229091 C110.738508,10.1229091 111.316475,9.75654545 111.394237,9.28379545 L112.085695,1.41543182 C112.085695,0.638318182 111.180565,0 110.041446,0 C108.90513,0 108,0.638318182 108,1.41543182 L108.690757,9.28379545 C108.766418,9.75654545 109.344384,10.1229091 110.044249,10.1229091" id="Fill-10"></path>
                    <path d="M106.089315,12.2716709 C106.438896,11.6622391 106.411574,10.9753072 106.042377,10.6716482 L99.6125914,6.13578452 C98.9442524,5.74828452 97.9417439,6.2161027 97.3714841,7.20880725 C96.8026253,8.19939816 96.901405,9.30694361 97.5697439,9.6958527 L104.688185,13.0290572 C105.135846,13.1960345 105.741834,12.8761709 106.091416,12.2688527" id="Fill-11"></path>
                    <path d="M114.24374,12.2687619 C114.595423,12.8760801 115.19861,13.1959437 115.644869,13.0289664 L122.766112,9.6957619 C123.436553,9.30685281 123.53253,8.19930735 122.962271,7.20871644 C122.393412,6.21671644 121.390903,5.74819371 120.721864,6.13569371 L114.291378,10.6715574 C113.923581,10.9752164 113.899062,11.6621483 114.245841,12.2715801" id="Fill-12"></path>
                    <path d="M110.040045,20 C110.738508,20 111.316475,20.3663636 111.394237,20.8391136 L112.085695,28.7074773 C112.085695,29.4845909 111.180565,30.1243182 110.041446,30.1243182 C108.90513,30.1243182 108,29.4845909 108,28.7074773 L108.690757,20.8391136 C108.766418,20.3663636 109.344384,20 110.044249,20" id="Fill-13"></path>
                    <path d="M114.24374,16.8048313 C114.595423,16.1946949 115.19861,15.8776495 115.644869,16.0439222 L122.766112,19.3764222 C123.436553,19.7660358 123.53253,20.8735813 122.962271,21.8655813 C122.393412,22.8554677 121.390903,23.3253995 120.721864,22.9378995 L114.291378,18.4020358 C113.923581,18.0969677 113.899062,17.4107404 114.245841,16.8020131" id="Fill-14"></path>
                    <path d="M106.089315,16.8028373 C106.438896,17.4115646 106.411574,18.0970873 106.042377,18.40286 L99.6125914,22.93661 C98.9442524,23.32411 97.9417439,22.8562918 97.3714841,21.8664055 C96.8026253,20.8744055 96.901405,19.7654509 97.5697439,19.3758373 L104.688185,16.0447464 C105.135846,15.87636 105.741834,16.1948146 106.091416,16.8049509" id="Fill-15"></path>
                </g>
            </g>
        </g>
    </g>
</svg>