<?xml version="1.0" encoding="UTF-8"?>
<svg width="107px" height="33px" viewBox="0 0 107 33" version="1.1" xmlns="http://www.w3.org/2000/svg" xmlns:xlink="http://www.w3.org/1999/xlink">
    <!-- Generator: Sketch 52.1 (67048) - http://www.bohemiancoding.com/sketch -->
    <title>Group 20</title>
    <desc>Created with Sketch.</desc>
    <defs>
        <polygon id="path-1" points="0 0 15.0773522 0 15.0773522 19.1403959 0 19.1403959"></polygon>
        <polygon id="path-3" points="0 0 13.6881211 0 13.6881211 18.6262989 0 18.6262989"></polygon>
        <polygon id="path-5" points="0 0 15.6484475 0 15.6484475 19.002502 0 19.002502"></polygon>
    </defs>
    <g id="Promeθeus" stroke="none" stroke-width="1" fill="none" fill-rule="evenodd" opacity="0.5">
        <g id="Custom-WEB-Copy-22" transform="translate(-531.000000, -4305.000000)">
            <g id="Group-20" transform="translate(531.000000, 4305.000000)">
                <g id="Group">
                    <path d="M40.1817862,3.62148792 C40.1817862,0.19258167 33.2326318,-2.1354652 30.9991021,2.96148792 C29.2616865,-1.00366833 23.7713919,-0.872183955 22.2749169,2.99242542 L22.2759335,0.968597295 C22.2759335,0.66180042 21.9999192,0.380784795 21.6969644,0.380784795 L18.5792233,0.380784795 C18.2762684,0.380784795 18,0.66180042 18,0.968597295 L18,18.0770348 C18,18.3838317 18.2762684,18.6648473 18.5792233,18.6648473 L21.9300261,18.6648473 C22.2332352,18.6648473 22.5006081,18.3838317 22.5006081,18.0770348 L22.5006081,7.2282848 C22.5006081,6.00367542 23.0107007,4.62180042 24.2891093,4.33562855 C25.6951045,4.01851917 26.8418599,4.80742542 26.8418599,6.4548473 L26.8410974,18.0770348 C26.8410974,18.3838317 27.1168575,18.6648473 27.4200665,18.6648473 L30.8272922,18.6648473 C31.1305012,18.6648473 31.4065154,18.3838317 31.4065154,18.0770348 L31.4072779,6.55023792 C31.4072779,3.93601917 35.6943943,3.26055042 35.6946485,6.55023792 L35.6946485,18.0770348 C35.6946485,18.3838317 35.9709169,18.6648473 36.2736176,18.6648473 L39.6033254,18.6648473 C39.9062803,18.6648473 40.1820404,18.3838317 40.1820404,18.0770348 L40.1817862,3.62148792 Z" id="Fill-1" fill="#FFFFFF"></path>
                    <path d="M73.6984617,1.58523437 C73.6984617,1.2784375 73.4227016,1 73.1194926,1 L62.097476,1 C61.9449819,1 61.7932503,1.06445312 61.685742,1.17273438 C61.5784878,1.28359375 61.5304522,1.43570312 61.5304522,1.59039062 L61.5304522,3.96742187 C61.5304522,4.27164062 61.8232408,4.54492188 62.1244166,4.54492188 L67.9181743,4.54492188 L61.3167064,14.3495312 C60.9395377,14.9089844 61.0040935,15.2570312 61.0043477,15.3730469 L61.0099392,18.1007031 C61.0099392,18.6859375 61.2239392,18.9463281 61.8850009,18.6627344 C65.9217729,16.9328125 70.2226137,16.8296875 73.4646375,18.7967969 C73.7299772,18.9592187 74.0504688,18.7839063 74.0504688,18.325 L74.0512313,15.2621875 C74.0512313,15.0636719 73.9455021,14.8703125 73.7805544,14.7671875 C71.9079273,13.5683594 69.52597,13.2486719 67.2149225,13.2847656 L73.3866114,4.58359375 C73.6821957,4.1659375 73.69897,3.71992187 73.69897,3.59875 L73.6984617,1.58523437 Z" id="Fill-3" fill="#FFFFFF"></path>
                    <g id="Group-7" transform="translate(75.484561, 0.014695)">
                        <mask id="mask-2" fill="white">
                            <use xlink:href="#path-1"></use>
                        </mask>
                        <g id="Clip-6"></g>
                        <path d="M15.0773509,9.54985076 C15.0750635,4.09453826 11.9184364,-0.0510867442 7.53855281,0.000475755794 C3.13427015,0.0520382558 -0.00609089196,4.24406951 8.8705136e-06,9.58852263 C0.00610863298,15.0670383 3.20848393,19.2590695 7.6168331,19.1378976 C12.0048497,19.0167258 15.0796383,14.8478976 15.0773509,9.54985076 M10.1167191,9.60914763 C10.1167191,12.9246164 9.99955281,15.6110226 7.53855281,15.6110226 C5.19497324,15.6110226 4.9606407,12.9246164 4.9606407,9.60914763 C4.9606407,6.29367888 5.15608726,3.56602263 7.53855281,3.60469451 C9.8432464,3.64336638 10.1167191,6.29367888 10.1167191,9.60914763" id="Fill-5" fill="#FFFFFF" mask="url(#mask-2)"></path>
                    </g>
                    <g id="Group-10" transform="translate(93.021378, 0.272508)">
                        <mask id="mask-4" fill="white">
                            <use xlink:href="#path-3"></use>
                        </mask>
                        <g id="Clip-9"></g>
                        <path d="M13.687867,4.83848638 C13.687867,2.12629888 12.0693967,-0.114091748 8.28068171,0.00450200234 C6.52318765,0.0586426273 5.15252019,1.41473638 4.39157482,3.33286138 L4.39157482,0.868173877 C4.39157482,0.558798877 4.11556057,0.280361377 3.8126057,0.280361377 L0.578714964,0.280361377 C0.275760095,0.280361377 0,0.558798877 0,0.868173877 L0,18.0410645 C0,18.3478614 0.275760095,18.6262989 0.578714964,18.6262989 L3.96103325,18.6262989 C4.26398812,18.6262989 4.54000238,18.3478614 4.54000238,18.0410645 L4.54000238,7.2541895 C4.54000238,5.64801763 5.89669121,4.29192388 7.14790499,4.2429395 C8.17952732,4.20426763 9.21242043,5.20973638 9.21242043,6.34411138 L9.21242043,18.0410645 C9.21242043,18.3478614 9.48767221,18.6262989 9.79062708,18.6262989 L13.1096603,18.6262989 C13.412361,18.6262989 13.6886295,18.3478614 13.6881211,18.0410645 L13.687867,4.83848638 Z" id="Fill-8" fill="#FFFFFF" mask="url(#mask-4)"></path>
                    </g>
                    <path d="M57.3132903,4.56385523 C57.3132903,1.67893335 54.8520362,-0.159269771 50.083801,0.0108864787 C47.1724352,0.114011479 44.4026348,1.21229273 43.6884542,4.78041773 C43.6561763,4.94026148 43.6927749,5.11299585 43.7868129,5.24448023 C43.8808509,5.37570679 44.0308034,5.46362085 44.1899055,5.48166773 L47.1594732,5.82687867 C47.4438747,5.85807398 47.7353925,5.64383179 47.7925777,5.36049585 C48.0068319,4.23617554 48.8480908,3.40369898 50.083801,3.40369898 C51.9241502,3.40369898 52.7209317,4.36508179 52.7209317,5.63893335 L52.7209317,7.30698023 L49.0521787,7.59057398 C45.9494329,7.8303396 43.0617036,9.8825271 43.0009602,13.8141677 C42.9452998,17.4338552 45.3155659,19.1586209 48.5502191,18.9910427 C50.4767274,18.8879177 52.1567036,18.0526052 53.4300291,16.6140115 L55.2614827,18.6816677 C55.3646704,18.7976834 55.5156395,18.8698709 55.6701668,18.8750271 C55.8246941,18.8801834 55.9804922,18.8208865 56.0923212,18.7126052 L58.4755492,16.4026052 C58.6753165,16.2066677 58.7068319,15.861199 58.5454424,15.6340662 L57.6686015,14.4635974 C57.4904376,14.2264099 57.3132903,13.1696365 57.3132903,12.5689334 L57.3132903,4.56385523 Z M52.7608343,9.83612085 L52.7608343,12.0610427 C52.7608343,13.7858084 51.6326324,15.2553396 50.7001312,15.5389334 C48.8618153,16.1009646 47.6685492,14.6520584 47.713535,13.1077615 C47.7704661,11.1561209 49.462896,9.9650271 50.8917654,9.91088648 L52.7608343,9.83612085 Z" id="Fill-11" fill="#FFFFFF"></path>
                    <g id="Group-15" transform="translate(0.000000, 0.272508)">
                        <mask id="mask-6" fill="white">
                            <use xlink:href="#path-5"></use>
                        </mask>
                        <g id="Clip-14"></g>
                        <path d="M14.3130363,4.56385523 C14.3130363,1.67893335 11.8520363,-0.159269771 7.08380113,0.0108864787 C4.17243533,0.114011479 1.40263486,1.21229273 0.688454334,4.78299585 C0.656176424,4.94026148 0.692774999,5.11299585 0.786813004,5.24448023 C0.880851008,5.3759646 1.0308035,5.46619898 1.18990564,5.48424585 L4.15947334,5.82713648 C4.44387476,5.8606521 4.73539258,5.64666773 4.79257785,5.36049585 C5.00683201,4.23643335 5.84809091,3.4062771 7.08380113,3.4062771 C8.9241503,3.4062771 9.72093177,4.3653396 9.72093177,5.63893335 L9.72093177,7.30955835 L6.05192464,7.59057398 C2.94943296,7.8303396 0.0617037399,9.8825271 0.000960271971,13.8141677 C-0.0547000606,17.4364334 2.31531182,19.161199 5.54996502,18.9910427 C7.47672749,18.8904959 9.15670374,18.0551834 10.4300292,16.6140115 L12.2614828,18.6816677 C12.3646705,18.7976834 12.5156396,18.8698709 12.6701669,18.877863 C12.8246942,18.8827615 12.9804923,18.8234646 13.0920672,18.7151834 L15.4755493,16.4026052 C15.6753166,16.2092459 15.706832,15.861199 15.5451883,15.634324 L14.6683474,14.4664334 C14.4904377,14.2266677 14.3130363,13.1696365 14.3130363,12.5689334 L14.3130363,4.56385523 Z M9.76058022,9.83869898 L9.76058022,12.0610427 C9.76058022,13.7860662 8.63263248,15.2553396 7.69987714,15.5389334 C5.86181538,16.1009646 4.66854935,14.6520584 4.71353509,13.1077615 C4.77046621,11.1561209 6.46289614,9.96760523 7.8917655,9.91088648 L9.76058022,9.83869898 Z" id="Fill-13" fill="#FFFFFF" mask="url(#mask-6)"></path>
                    </g>
                    <path d="M67.3333732,29.5490849 C66.6550288,31.1939287 68.3073019,30.1214287 68.5108815,29.9332256 C70.7398364,27.8861943 72.37991,21.7425224 71.3706535,20.8040849 C70.0983447,19.6233037 64.1902164,19.6336162 61.5721475,21.5723662 C60.4787651,22.3844756 61.0910288,22.5417412 62.2451546,22.4695537 C64.2636677,22.3406474 66.0773304,22.2065849 67.6279409,22.3406474 C69.0997627,22.4695537 69.182872,23.1965849 68.805195,24.7718193 C68.3667746,26.6022881 68.0905062,27.7160381 67.3333732,29.5490849" id="Fill-16" fill="#FFFFFF"></path>
                    <path d="M64.9395755,24.4405136 C49.6983024,30.7543417 32.1131955,29.8777792 17.6473546,22.1408261 C17.4475874,22.0351229 16.7389983,21.6226229 15.9312881,21.2127011 C15.2999627,20.8930136 15.1802549,20.9987167 15.0780838,21.1121542 C14.9367727,21.2668417 14.9901456,21.5478573 15.2148202,21.7541073 C23.7095019,29.5168417 33.9222834,33.2497089 45.072395,32.7601229 C53.5838511,32.3837167 61.5150672,29.2177792 66.0565945,25.8481698 C66.7268059,25.3505917 66.9669841,24.7034823 66.6876658,24.3992636 C66.4019936,24.0873104 65.6474021,24.1466073 64.9395755,24.4405136" id="Fill-18" fill="#FFFFFF"></path>
                </g>
            </g>
        </g>
    </g>
</svg>