<?xml version="1.0" encoding="UTF-8"?>
<svg width="116px" height="20px" viewBox="0 0 116 20" version="1.1" xmlns="http://www.w3.org/2000/svg" xmlns:xlink="http://www.w3.org/1999/xlink">
    <!-- Generator: Sketch 52.1 (67048) - http://www.bohemiancoding.com/sketch -->
    <title>Custom WEB Copy 22</title>
    <desc>Created with Sketch.</desc>
    <g id="Promeθeus" stroke="none" stroke-width="1" fill="none" fill-rule="evenodd">
        <g id="Custom-WEB-Copy-22" transform="translate(-517.000000, -4024.000000)">
            <rect fill="#161825" x="0" y="0" width="1440" height="7093"></rect>
            <path d="M546.85986,4037.65423 C548.339261,4037.09658 549.658069,4036.4091 550.068798,4036.13666 C550.804605,4035.64195 550.916534,4034.95054 550.591455,4034.20307 C549.555874,4031.85147 547.208298,4029.38678 543.316111,4030.1372 C540.216182,4030.73518 538,4033.55591 538,4036.77792 C538,4040.771 540.380668,4043.10292 543.408573,4043.83073 C546.208729,4044.50149 549.611351,4043.11964 550.959358,4040.73166 C551.159856,4040.17302 550.608001,4039.16688 549.536408,4039.25933 C548.871651,4040.02353 547.728035,4040.88017 546.804383,4041.18015 C545.936208,4041.46143 543.450425,4041.67781 542.72435,4039.61438 C542.553051,4039.12656 542.691259,4038.98395 543.092254,4038.90723 C543.303458,4038.86101 545.235439,4038.26598 546.85986,4037.65423 Z M545.358074,4036.16715 L544.239763,4036.54187 C543.154545,4036.91463 542.628968,4036.99036 542.375913,4036.28321 C542.070299,4035.4364 542.36618,4032.75828 543.740465,4032.3393 C545.196507,4031.89475 546.12308,4032.6196 546.56398,4034.13029 C546.728466,4034.68794 546.695374,4035.28002 546.511422,4035.49934 C546.248634,4035.82489 545.781455,4036.02061 545.358074,4036.16715 Z" id="Fill-2" fill="#FFFFFF" opacity="0.5"></path>
            <path d="M612.859286,4037.65423 C614.338591,4037.09658 615.656341,4036.4091 616.067043,4036.13666 C616.806695,4035.64195 616.915697,4034.95054 616.586746,4034.20307 C615.555125,4031.85147 613.207702,4029.38678 609.315766,4030.1372 C606.216038,4030.73518 604,4033.55591 604,4036.77792 C604,4040.771 606.380513,4043.10292 609.40725,4043.83073 C612.208197,4044.50149 615.610599,4043.11964 616.958519,4040.73166 C617.161923,4040.17302 616.606211,4039.16688 615.534688,4039.25933 C614.870947,4040.02353 613.727405,4040.88017 612.802839,4041.18015 C611.93472,4041.46143 609.450072,4041.67781 608.726964,4039.61438 C608.552756,4039.12656 608.690955,4038.98395 609.094844,4038.90723 C609.305061,4038.86101 611.23497,4038.26598 612.859286,4037.65423 Z M611.359543,4036.16715 L610.238386,4036.54187 C609.154211,4036.91463 608.628668,4036.99036 608.375629,4036.28321 C608.069062,4035.4364 608.364924,4032.75828 609.73912,4032.3393 C611.196041,4031.89475 612.119634,4032.6196 612.563425,4034.13029 C612.727901,4034.68794 612.694811,4035.28002 612.510871,4035.49934 C612.2481,4035.82489 611.780951,4036.02061 611.359543,4036.16715 Z" id="Fill-3" fill="#FFFFFF" opacity="0.5"></path>
            <path d="M583.859862,4037.65423 C585.339263,4037.09658 586.657098,4036.4091 587.0688,4036.13666 C587.804608,4035.64195 587.916536,4034.95054 587.587564,4034.20307 C586.555876,4031.85147 584.20538,4029.38678 580.316112,4030.1372 C577.216182,4030.73518 575,4033.55591 575,4036.77792 C575,4040.771 577.380668,4043.10292 580.408574,4043.83073 C583.208731,4044.50149 586.611354,4043.11964 587.959361,4040.73166 C588.159859,4040.17302 587.608003,4039.16688 586.535437,4039.25933 C585.871653,4040.02353 584.728037,4040.88017 583.804384,4041.18015 C582.936209,4041.46143 580.451399,4041.67781 579.724351,4039.61438 C579.554025,4039.12656 579.691259,4038.98395 580.092255,4038.90723 C580.303459,4038.86101 582.236414,4038.26598 583.859862,4037.65423 Z M582.358075,4036.16715 L581.239764,4036.54187 C580.151626,4036.91463 579.626049,4036.99036 579.375913,4036.28321 C579.0703,4035.4364 579.363261,4032.75828 580.740466,4032.3393 C582.196509,4031.89475 583.120161,4032.6196 583.563982,4034.13029 C583.728468,4034.68794 583.695376,4035.28002 583.508504,4035.49934 C583.248636,4035.82489 582.781456,4036.02061 582.358075,4036.16715 Z" id="Fill-4" fill="#FFFFFF" opacity="0.5"></path>
            <path d="M557.571387,4039.20866 C557.571387,4039.20573 557.571387,4030.84079 557.571387,4030.47111 C557.571387,4030.17557 557.402098,4030 557.109689,4030 C556.79131,4030 552.798588,4030 552.798588,4030 C552.466743,4030 552.395565,4030.06633 552.320539,4030.38918 C552.256093,4030.66912 552.291683,4030.89638 552.265712,4031.23875 C552.239742,4031.57526 552.440772,4031.59476 552.697592,4031.72937 C552.811092,4031.78594 552.889004,4031.86885 552.980382,4031.92152 C553.256438,4032.07953 553.399757,4032.60917 553.402642,4033.47629 L553.402642,4039.20866 C553.399757,4040.38791 553.019818,4040.79269 552.68124,4040.95461 C552.571587,4041.00728 552.473476,4041.08628 552.33689,4041.14578 C552.022359,4041.28039 551.966571,4041.42865 552.015626,4041.76516 C552.037749,4041.91342 552.003122,4042.33186 552.083919,4042.61472 C552.174334,4042.93758 552.262826,4043 552.668736,4043 L558.312027,4043 C558.715051,4043 558.802581,4042.93758 558.896844,4042.61472 C558.974755,4042.33186 558.961289,4041.91342 558.984374,4041.76516 C559.033429,4041.42865 558.977641,4041.26771 558.66311,4041.13603 C558.526524,4041.07653 558.425528,4041.00728 558.314913,4040.95461 C557.980182,4040.79269 557.571387,4040.38791 557.571387,4039.20866" id="Fill-5" fill="#FFFFFF" opacity="0.5"></path>
            <path d="M555.5,4030 C556.881413,4029.99672 558,4028.87882 558,4027.5 C558,4026.12118 556.881413,4025 555.5,4025 C554.118587,4025 553,4026.12118 553,4027.5 C553,4028.87882 554.118587,4029.99672 555.5,4030" id="Fill-6" fill="#FFFFFF" opacity="0.5"></path>
            <path d="M565.781857,4035.17801 C565.781857,4033.83396 566.529306,4033.07624 567.443749,4032.96399 C568.038287,4032.88581 568.806862,4033.30877 568.806862,4034.32106 C568.806862,4035.20807 568.806862,4039.29133 568.806862,4041.26781 C568.806862,4043.24128 570.49491,4044 571.81376,4044 C573.210071,4044 574.41625,4043.36055 574.939364,4042.24001 C575.099316,4041.90124 574.912202,4041.61058 574.732131,4041.43118 C574.507795,4041.21068 574.358909,4041.02125 574.035987,4041.18362 C573.64164,4041.37305 573.033017,4042.06662 573.033017,4040.98717 C573.033017,4039.92076 573.006861,4036.53909 573.009879,4033.82694 C573.006861,4031.5147 571.912347,4030.52045 570.692083,4030.14059 C569.248491,4029.69057 567.498072,4030.42824 566.607773,4030.84819 C566.153066,4031.06468 565.925713,4031.17995 565.925713,4031.17995 C565.925713,4031.17995 565.806,4030.98651 565.755701,4030.86824 C565.608827,4030.5405 565.564563,4030.34004 565.170216,4030.34405 L560.838432,4030.34706 C560.488349,4030.34706 560.4129,4030.41421 560.335439,4030.74296 C560.268037,4031.03061 560.304253,4031.26815 560.278097,4031.61994 C560.250936,4031.96573 560.461187,4031.98176 560.729786,4032.12108 C560.848492,4032.18222 560.929977,4032.2634 561.025546,4032.31752 C561.314265,4032.4839 561.511438,4033.02513 561.511438,4033.91915 L561.511438,4039.95483 C561.511438,4041.16658 561.065786,4041.58252 560.715702,4041.7489 C560.596995,4041.80302 560.495391,4041.8842 560.355558,4041.94534 C560.0266,4042.08366 559.965235,4042.236 560.015534,4042.58179 C560.039678,4042.73413 560.002457,4043.16411 560.08696,4043.45476 C560.182528,4043.78652 560.274073,4043.85066 560.6986,4043.85066 L566.557473,4043.85066 C566.982,4043.85066 567.073545,4043.78652 567.169114,4043.45476 C567.250599,4043.16411 567.236515,4042.73413 567.260659,4042.58179 C567.310958,4042.236 567.253617,4042.07063 566.923653,4041.93532 C566.784827,4041.87418 566.679198,4041.80302 566.563509,4041.7489 C566.210408,4041.58252 565.781857,4041.16658 565.781857,4039.95483 L565.781857,4035.17801" id="Fill-7" fill="#FFFFFF" opacity="0.5"></path>
            <path d="M623.782383,4035.17801 C623.782383,4033.83396 624.529795,4033.07624 625.444194,4032.96399 C626.03468,4032.88581 626.806235,4033.30877 626.806235,4034.32106 C626.806235,4035.20807 626.806235,4039.29133 626.806235,4041.26781 C626.806235,4043.24128 628.495206,4044 629.809968,4044 C631.210234,4044 632.416355,4043.36055 632.939443,4042.24001 C633.099387,4041.90124 632.912283,4041.61058 632.728196,4041.43118 C632.507895,4041.21068 632.358011,4041.02125 632.032086,4041.18362 C631.640776,4041.37305 631.033189,4042.06662 631.033189,4040.98717 C631.033189,4039.92076 631.006029,4036.53909 631.006029,4033.82694 C631.006029,4031.5147 629.911568,4030.52045 628.69237,4030.14059 C627.247842,4029.69057 625.498514,4030.42824 624.608258,4030.84819 C624.14955,4031.06468 623.925226,4031.17995 623.925226,4031.17995 C623.925226,4031.17995 623.805519,4030.98651 623.752205,4030.86824 C623.608355,4030.5405 623.5651,4030.34004 623.170772,4030.34405 L618.835176,4030.34706 C618.488127,4030.34706 618.413688,4030.41421 618.335224,4030.74296 C618.267826,4031.03061 618.305046,4031.26815 618.277886,4031.61994 C618.250726,4031.96573 618.460967,4031.98176 618.729552,4032.12108 C618.845235,4032.18222 618.929734,4032.2634 619.025298,4032.31752 C619.314003,4032.4839 619.508149,4033.02513 619.511167,4033.91915 L619.511167,4039.95483 C619.508149,4041.16658 619.066542,4041.58252 618.712451,4041.7489 C618.596768,4041.80302 618.495169,4041.8842 618.352325,4041.94534 C618.023383,4042.08366 617.965039,4042.236 618.016342,4042.58179 C618.036461,4042.73413 618.002259,4043.16411 618.087763,4043.45476 C618.183328,4043.78652 618.274868,4043.85066 618.69535,4043.85066 L624.556956,4043.85066 C624.981462,4043.85066 625.073002,4043.78652 625.168566,4043.45476 C625.250047,4043.16411 625.235964,4042.73413 625.260107,4042.58179 C625.31141,4042.236 625.254071,4042.07063 624.924123,4041.93532 C624.784298,4041.87418 624.67968,4041.80302 624.563997,4041.7489 C624.209907,4041.58252 623.782383,4041.16658 623.782383,4039.95483 L623.782383,4035.17801" id="Fill-8" fill="#FFFFFF" opacity="0.5"></path>
            <path d="M603.648888,4041.12617 C603.511199,4041.06635 602.627198,4040.93692 602.098393,4039.98382 L598.880668,4034.19759 L600.838242,4032.33945 C600.838242,4032.33945 601.351083,4031.86584 601.72823,4031.61384 C602.109369,4031.36282 602.580304,4031.19612 602.759898,4031.16671 C602.914548,4031.14415 603.052237,4031.00099 603.005343,4030.24597 C602.964436,4029.58704 602.836724,4029.54095 602.67509,4029.52036 C602.597266,4029.51448 602.300936,4029.50467 602.300936,4029.50467 C602.300936,4029.50467 600.972938,4029.52428 599.90136,4029.52723 C598.833774,4029.52428 597.32718,4029.50467 597.32718,4029.50467 C597.32718,4029.50467 597.030849,4029.51448 596.953025,4029.52036 C596.7874,4029.54095 596.666673,4029.58704 596.618781,4030.24597 C596.575878,4030.84215 596.622772,4031.0108 596.760461,4031.07454 C596.90214,4031.13729 597.067766,4031.20005 597.273301,4031.33536 C597.556661,4031.52167 597.647455,4031.75014 597.387044,4032.00508 C597.124637,4032.26002 596.043082,4033.35922 596.043082,4033.36314 L594.735039,4034.429 L594.73903,4026.00312 C594.69513,4025.30791 594.502565,4024.99708 593.734302,4025.00002 L589.633572,4025.00296 C589.28935,4025.00296 589.157648,4025.06964 589.080822,4025.39028 C589.012975,4025.67268 589.029937,4025.83153 589.002998,4026.17276 C588.972068,4026.51399 589.184587,4026.5336 589.450985,4026.66598 C589.565726,4026.72579 589.791216,4026.84444 589.886002,4026.89445 C590.35095,4027.15919 590.49263,4027.421 590.49263,4028.49765 L590.49263,4039.1886 C590.49263,4040.37408 590.104508,4040.78101 589.757293,4040.94378 C589.64355,4040.99673 589.54178,4041.07616 589.4001,4041.13597 C589.073838,4041.27129 589.012975,4041.42033 589.066853,4041.75862 C589.086808,4041.90767 589.053883,4042.32832 589.137693,4042.61268 C589.231481,4042.93724 589.323274,4043 589.741329,4043 L595.54421,4043 C595.965258,4043 596.056053,4042.93724 596.150839,4042.61268 C596.231656,4042.32832 596.221679,4041.90767 596.241634,4041.75862 C596.292519,4041.42033 596.235647,4041.25854 595.908387,4041.12617 C595.7697,4041.06635 595.665935,4040.99379 595.551194,4040.94378 C594.870733,4040.63295 594.732046,4039.96029 594.732046,4038.8709 L594.732046,4038.09822 L595.908387,4037.15199 L598.985431,4042.64308 C599.147065,4042.93724 599.189968,4043 599.608023,4043 L603.284712,4043 C603.70576,4043 603.797552,4042.93724 603.89134,4042.61268 C603.976148,4042.32832 603.959187,4041.90767 603.982135,4041.75862 C604.037011,4041.42033 603.976148,4041.25854 603.648888,4041.12617" id="Fill-9" fill="#FFFFFF" opacity="0.5"></path>
            <path d="M628,4026.5 C628,4027.88294 629.120772,4029 630.501433,4029 C631.879228,4029 633,4027.88294 633,4026.5 C633,4025.11802 631.879228,4024 630.501433,4024 C629.120772,4024 628,4025.11802 628,4026.5 Z M630.501433,4028.46729 C629.414103,4028.46729 628.533155,4027.58933 628.533155,4026.5 C628.533155,4025.4145 629.414103,4024.53271 630.501433,4024.53271 C631.585897,4024.53271 632.463023,4025.4145 632.463023,4026.5 C632.463023,4027.58933 631.585897,4028.46729 630.501433,4028.46729 Z" id="Fill-10" fill="#FFFFFF" opacity="0.5"></path>
            <path d="M630,4027.99256 L630.541492,4027.99256 L630.541492,4026.82295 C630.541492,4026.82295 630.572506,4026.83038 630.756077,4026.84101 C631.027661,4026.85588 631.170159,4026.91643 631.248952,4027.23938 C631.305951,4027.45822 631.333613,4027.66962 631.444258,4027.99256 C631.682313,4028 631.75021,4028 632,4028 C631.939648,4027.80984 631.851635,4027.58782 631.815591,4027.26806 C631.772842,4026.94193 631.688181,4026.75814 631.492037,4026.59348 C631.668064,4026.51487 631.846605,4026.23442 631.846605,4025.83286 C631.846605,4025.19759 631.322716,4025 631.129925,4025 C630.940486,4025 630,4025 630,4025 L630,4027.99256 Z M630.979883,4026.23123 C630.796312,4026.23123 630.544007,4026.23123 630.544007,4026.23123 L630.544007,4025.54603 C630.544007,4025.54603 630.756077,4025.54603 630.923722,4025.54603 C631.090528,4025.54603 631.288349,4025.63527 631.288349,4025.87217 C631.288349,4026.08038 631.160939,4026.23123 630.979883,4026.23123 Z" id="Fill-11" fill="#FFFFFF" opacity="0.5"></path>
            <path d="M536.292239,4038.85063 L536.292239,4028.96827 C536.292239,4027.57305 536.417121,4027.1325 536.909654,4026.94019 C537.193385,4026.82736 537.64196,4026.62229 537.783826,4026.55852 C537.918698,4026.49965 538.003618,4026.32107 537.945672,4025.83343 C537.89572,4025.3664 537.844768,4025.10148 537.723883,4025.06125 C537.665937,4025.04163 537.508087,4025.03182 537.274308,4025.02789 C536.639909,4025.01514 531.059197,4025.02495 531.059197,4025.02495 C531.059197,4025.02495 530.616616,4025.02102 530.542686,4025.04457 C530.434788,4025.07106 530.359859,4025.2565 530.3169,4025.77652 C530.265948,4026.37013 530.319897,4026.49965 530.461763,4026.55852 C530.602629,4026.62229 530.920328,4026.82736 531.14012,4026.94019 C531.520759,4027.1325 531.679609,4027.57305 531.679609,4028.96827 L531.656631,4031.41728 C531.656631,4031.62627 531.480797,4031.79895 531.265002,4031.79895 L527.731349,4031.79895 C527.518551,4031.79895 527.343717,4031.62627 527.343717,4031.41728 L527.319739,4028.96827 C527.319739,4027.57305 527.475592,4027.1325 527.856231,4026.94019 C528.076023,4026.82736 528.402713,4026.63505 528.537586,4026.55852 C528.808329,4026.40644 528.629498,4025.24669 528.493627,4025.08774 C528.389726,4024.96215 527.978116,4025.00827 527.978116,4025.00827 L521.711053,4025.00434 C521.711053,4025.00434 521.32342,4025.04163 521.276465,4025.06125 C521.050679,4025.15348 520.860858,4026.43685 521.137596,4026.55852 C521.279462,4026.62229 521.728037,4026.82736 522.015764,4026.94019 C522.504301,4027.1325 522.707109,4027.57305 522.707109,4028.96827 L522.707109,4038.85063 C522.707109,4040.42148 522.345452,4040.64028 521.876896,4040.88263 C521.536219,4041.05434 521.255485,4041.07102 521.076654,4041.31925 C520.90182,4041.56553 521.056673,4042.84399 521.276465,4042.95388 C521.370376,4043 521.812956,4043 521.812956,4043 L528.217888,4042.99706 C528.217888,4042.99706 528.646482,4042.98038 528.753381,4042.95388 C528.990157,4042.89109 529.125029,4041.56553 528.950195,4041.31925 C528.774361,4041.07102 528.493627,4041.05434 528.15295,4040.88263 C527.681397,4040.64028 527.323736,4040.42148 527.323736,4038.85063 L527.343717,4034.9073 C527.343717,4034.69537 527.518551,4034.52563 527.731349,4034.52563 L531.265002,4034.52563 C531.480797,4034.52563 531.656631,4034.69537 531.656631,4034.9073 L531.676612,4038.85063 C531.676612,4040.42148 531.307961,4040.62753 530.846398,4040.88263 C530.66457,4040.97879 530.067136,4041.15736 529.955242,4041.31729 C529.827364,4041.49292 529.992207,4042.85184 530.228983,4042.94407 C530.333884,4042.98332 530.616616,4042.99411 530.616616,4042.99411 L537.301283,4042.99706 C537.301283,4042.99706 537.679924,4042.97056 537.723883,4042.95388 C537.949669,4042.85773 538.098528,4041.56553 537.922694,4041.31925 C537.743864,4041.07102 537.46313,4041.05434 537.122452,4040.88263 C536.653896,4040.64028 536.292239,4040.42148 536.292239,4038.85063" id="Fill-12" fill="#FFFFFF" opacity="0.5"></path>
            <path d="M1269,4174 L1269,4192 L1267,4192 L1267,4174 L1249,4174 L1249,4172 L1267,4172 L1267,4154 L1269,4154 L1269,4174 Z M1267,4447 L1249,4447 L1249,4445 L1267,4445 L1267,4427 L1269,4427 L1269,4447 L1267,4447 Z M1269,3901 L1269,3919 L1267,3919 L1267,3901 L1249,3901 L1249,3899 L1269,3899 L1269,3901 Z M993,4172 L993,4154 L994,4154 L993,4154 L993,4172 L995,4172 L995,4154 L994,4154 L995,4154 L995,4172 L1013,4172 L1013,4174 L995,4174 L995,4192 L993,4192 L993,4174 L975,4174 L975,4172 L993,4172 Z M993,4445 L993,4427 L995,4427 L995,4445 L1013,4445 L1013,4447 L993,4447 L975,4447 L975,4445 L993,4445 Z M993,3899 L995,3899 L1013,3899 L1013,3901 L995,3901 L995,3919 L993,3919 L993,3901 L975,3901 L975,3899 L993,3899 Z M718,4172 L720,4172 L720,4154 L719,4154 L720,4154 L720,4172 L738,4172 L738,4174 L720,4174 L720,4192 L718,4192 L718,4174 L700,4174 L700,4172 L718,4172 L718,4154 L719,4154 L718,4154 L718,4172 Z M718,4447 L700,4447 L700,4445 L718,4445 L718,4427 L720,4427 L720,4445 L738,4445 L738,4447 L718,4447 Z M718,3899 L720,3899 L738,3899 L738,3901 L720,3901 L720,3919 L718,3919 L718,3901 L700,3901 L700,3899 L718,3899 Z M443,4447 L425,4447 L425,4445 L443,4445 L443,4427 L445,4427 L445,4445 L463,4445 L463,4447 L443,4447 Z M443,3899 L445,3899 L463,3899 L463,3901 L445,3901 L445,3919 L443,3919 L443,3901 L425,3901 L425,3899 L443,3899 Z M443,4172 L443,4154 L445,4154 L445,4172 L463,4172 L463,4174 L445,4174 L445,4192 L443,4192 L443,4174 L425,4174 L425,4172 L443,4172 Z M170,4445 L170,4427 L172,4427 L172,4445 L190,4445 L190,4447 L170,4447 L170,4445 Z M170,4174 L170,4172 L170,4154 L172,4154 L172,4172 L190,4172 L190,4174 L172,4174 L172,4192 L170,4192 L170,4174 Z M172,3899 L190,3899 L190,3901 L172,3901 L172,3919 L170,3919 L170,3899 L172,3899 Z" id="Combined-Shape" fill="#292C3F" fill-rule="nonzero" opacity="0.699999988"></path>
        </g>
    </g>
</svg>