<?xml version="1.0" encoding="UTF-8"?>
<svg width="107px" height="46px" viewBox="0 0 107 46" version="1.1" xmlns="http://www.w3.org/2000/svg" xmlns:xlink="http://www.w3.org/1999/xlink">
    <!-- Generator: Sketch 52.1 (67048) - http://www.bohemiancoding.com/sketch -->
    <title>Group 21</title>
    <desc>Created with Sketch.</desc>
    <g id="Promeθeus" stroke="none" stroke-width="1" fill="none" fill-rule="evenodd" opacity="0.5">
        <g id="Custom-WEB-Copy-22" transform="translate(-795.000000, -4293.000000)" fill="#FFFFFF">
            <g id="Group-21" transform="translate(795.000000, 4293.000000)">
                <g id="Group">
                    <path d="M2.32887079,5.39795172 C1.0151239,5.43715964 0.0239309559,4.86151608 0.000177843867,4.05641707 C-0.0173595005,3.46785271 1.26619652,1.63042697 2.04916125,1.33302598 C2.58416125,1.13008044 5.19056581,0.136738851 9.5349434,0.00708538559 C11.1448272,-0.040810654 13.878877,0.157456673 16.1873687,0.500748752 C29.6256364,2.49946162 43.732543,12.7826299 44.0024849,21.9027042 C44.186294,28.1078032 38.8442857,33.9290656 28.4160036,34.2402785 C25.6695222,34.3220359 23.1132878,33.9823082 20.7881467,33.3699072 C20.7379766,34.8930012 20.8511924,35.6996596 18.6980949,35.7640408 C17.3816841,35.803026 16.8684393,33.6628527 16.6748625,31.9216646 C10.3793998,29.1182983 6.58622764,24.5648329 6.53272764,22.7679517 C6.45369859,20.0915656 11.3028853,17.8593874 16.9741073,16.9760953 C17.0540243,14.7604022 17.4276364,9.11891707 18.5930928,9.08416459 C19.0614953,9.07012994 20.031599,10.1606002 20.3981073,11.8284963 C20.7308729,13.3437933 20.7655036,16.1072834 20.7690554,16.5996101 L21.1972774,16.5840161 C29.154792,16.3467636 33.9240617,18.8435953 34.0115264,21.8008973 C34.0792339,24.093224 32.0571115,25.2670111 30.9962131,25.2986448 C29.9353148,25.3302785 28.6921612,24.7245606 28.6823936,24.3950804 C28.6635243,23.7641893 30.946487,23.615823 30.9160741,22.5961943 C30.8705658,21.0575062 24.5438023,20.3827289 20.64585,20.3586695 C20.6400783,21.6843874 20.6229849,23.2852289 20.6549517,24.3607735 C20.6853646,25.3942141 20.7495202,28.0639171 20.781043,30.2914171 C22.5494289,30.6672339 24.3715368,30.8699567 26.15746,30.8167141 C30.3599849,30.6915161 39.959794,29.153719 39.74535,21.9165161 C39.4461052,11.8064418 19.5252359,2.51817449 8.85498282,2.83629331 C4.65245793,2.96149133 2.13018822,3.41394182 2.14261975,3.82785271 C2.15061145,4.10364479 4.18916125,4.21012994 4.20536664,4.75592202 C4.22135004,5.30149133 3.04745793,5.37656558 2.32887079,5.39795172 M16.9314849,20.5123824 C12.942294,20.8104517 7.84025876,21.55362 7.8817712,22.9557488 C7.92505959,24.4224814 11.685377,27.240328 16.6229164,29.0757488 C16.8524559,26.0741151 16.9095077,22.8927042 16.9314849,20.5123824" id="Fill-1"></path>
                    <path d="M46.5403009,17.0001887 C47.2266993,16.9796937 48.2110105,18.6331095 48.2416453,19.6663273 C48.2722802,20.6997679 48.518691,26.1004363 48.5906163,27.6565006 C48.6627636,29.2127877 48.6117055,30.7031343 48.5109213,31.3928372 C48.409915,32.0825402 48.1601744,32.4229363 46.9805105,32.4579115 C45.8010686,32.4928868 45.2516391,31.7880353 45.1515209,30.7456838 C45.0514026,29.7028868 44.9637159,26.745362 45.015218,25.263258 C45.066498,23.7818224 45.1362034,20.9461541 45.3286702,19.1708818 C45.521137,17.3956095 45.9950893,17.0164511 46.5403009,17.0001887" id="Fill-4"></path>
                    <path d="M43.3987569,10.2253258 C43.3259436,10.1041377 43.2571262,9.91166245 43.2482465,9.61136542 C43.2284892,8.94950898 44.3670847,6.41369215 47.2318876,6.20540007 C46.5019789,6.70775155 45.7638565,7.35111789 45.0335038,8.174707 C44.3466614,8.94928621 43.8003399,9.63096938 43.3987569,10.2253258 M45.8970515,11.5922565 C46.4882154,10.7546327 49.5532548,6.63601888 52.7121967,6.54178621 C53.639456,6.51416245 53.8838689,7.08980601 53.9027382,7.72582086 C53.9320411,8.71626641 52.1441199,11.6107466 48.1183004,11.7308209 C47.2356614,11.757108 46.4919892,11.6904991 45.8970515,11.5922565 M53.1448585,4.41564759 C52.9490618,3.92510304 52.2924104,2.93376641 49.9484,3.00349413 C44.8417029,3.15564759 40.9128938,6.9516872 41.0014685,9.94285056 C41.0301054,10.914806 41.4976199,11.7662417 42.1842403,12.4639644 C42.005537,12.9527268 41.9873336,13.2795337 41.9928834,13.4662169 C42.0082009,13.9859446 42.7876137,15.3575535 43.3856594,15.3397318 C43.8918004,15.3245832 44.2372195,14.8489644 44.7249353,14.0786179 C45.5574042,14.4011921 46.3872092,14.5653753 47.0454145,14.5459941 C51.847095,14.4027516 56.2036822,9.8871575 56.1182154,6.99846938 C56.0787009,5.66851888 55.219815,4.3826773 53.1448585,4.41564759" id="Fill-6"></path>
                    <path d="M59.0598859,16.0116414 C61.8711888,15.927879 65.3930871,16.2934483 65.4197261,17.1954532 C65.4354875,17.7234235 65.1599958,18.8252552 63.6599979,18.9776315 C61.890724,19.1578542 52.9662137,19.5381265 52.9988464,20.6435225 C53.0159398,21.2282998 55.6978216,21.3577305 58.1579336,21.5074334 C60.6846431,21.6609235 64.7437614,21.7562701 64.8649689,25.8606265 C64.9608693,29.1008493 63.7390269,29.785874 63.1891535,30.0438443 C62.4909896,30.3715423 60.1452033,31.2666414 58.3468485,31.3201067 C52.9266991,31.4816166 50.6921307,28.3561216 50.6450684,26.7675324 C50.603334,25.3571612 52.0493879,24.1058493 54.480863,24.0334483 C56.9121162,23.9610473 60.6773174,24.840775 60.7070643,25.8445869 C60.7310394,26.6579285 59.0705415,27.0760721 58.3359709,27.0981265 C55.018083,27.1970374 55.1808029,25.8439186 53.2685664,25.9009483 C52.1794751,25.933473 50.6510622,28.2556513 56.1091722,28.0928047 C60.9721224,27.9480027 62.4457033,26.3395869 62.4199523,25.4754532 C62.3859875,24.3319631 58.896722,23.7745869 56.8783734,23.6694384 C54.8598029,23.5642899 51.8309481,23.5783245 50.7973547,22.9222602 C49.7639834,22.2664186 49.908944,20.7823097 50.2667946,19.5550572 C51.0149066,16.9891661 56.248361,16.0954037 59.0598859,16.0116414" id="Fill-8"></path>
                    <path d="M69.0611972,17.2727402 C70.9610021,17.2161561 74.9433113,25.860166 75.6146142,25.8401165 C76.2856951,25.8202897 75.7866577,23.8209085 75.3626536,21.6125669 C74.4034275,16.6175669 72.9076474,14.0420967 74.3132988,14.0002155 C75.351776,13.9692501 78.7580167,17.2763046 78.9473756,23.6803392 C79.0355063,26.6539036 78.6183839,30.5455125 75.9336163,30.6254877 C73.3880374,30.7012303 70.4877158,22.6355372 69.8290665,22.6551412 C69.4743237,22.6656115 69.4445768,27.6519234 69.3497864,29.1556363 C69.2547739,30.6591264 68.7335374,31.4633343 67.8977387,31.4882848 C66.631498,31.5259333 66.0756308,30.3087056 66.0043714,27.9072204 C65.9333341,25.5057353 66.7185187,17.3424679 69.0611972,17.2727402" id="Fill-10"></path>
                    <path d="M88.5412402,21.8300179 C89.4405286,21.8032852 90.2345929,21.6524684 90.1553419,22.8249189 C90.0756468,23.9973694 90.0263647,24.4694238 89.0893377,24.4972704 L84.2818854,24.6405129 C84.1231614,25.1769486 83.7120327,26.5594733 83.5271136,27.1431367 C83.2953543,27.8749436 84.025707,27.713211 84.9682838,27.4434337 C85.9108605,27.1736565 88.4693149,26.6904634 89.5204456,26.6592753 C90.5715763,26.6278644 91.3569829,28.3086813 90.7529435,28.8863298 C90.1489041,29.4639783 86.8969477,32.219003 83.5031385,32.3201416 C82.046651,32.3633595 80.0695929,31.0870971 80.0018854,28.7998941 C79.9659228,27.5891268 80.4507527,25.964003 80.9147153,24.7022209 C80.8014995,24.6304882 80.7153668,24.4640773 80.6485473,24.1000674 C80.4975929,23.2780377 80.1286427,22.3733595 81.4927817,22.2180872 C81.6022236,22.2058347 81.7396365,22.1926912 81.8996925,22.1795476 L83.0265224,19.8504634 C82.5694415,19.7831862 82.1740742,19.6820476 81.8697236,19.5361317 C81.0412506,19.1391515 80.3954767,18.1175179 80.3819352,17.6599436 C80.3521883,16.6561317 87.6859062,16.0559832 89.3830327,16.0054139 C91.2064726,15.9510575 91.7241572,16.3043743 92.3064415,17.1393248 C92.8887257,17.9740525 93.1091634,18.5652902 93.1158232,18.7940773 C93.1227049,19.0226416 92.9113688,19.5884832 90.7078792,19.6542011 C89.5806054,19.6878397 87.7582755,19.8785327 86.0094249,19.9431367 L85.2479933,21.9797209 C86.9491157,21.8952902 88.5412402,21.8300179 88.5412402,21.8300179" id="Fill-12"></path>
                    <path d="M98.5343262,28.1244363 C100.938496,23.4067878 103.4177,20.7177037 104.289461,20.6918621 C105.801003,20.6466393 104.521664,27.5075799 98.5343262,28.1244363 M93.2069694,29.3372086 C91.237903,33.2355007 89.9123906,37.3661443 90.0045171,40.4753769 C90.1081872,43.9789165 92.2521831,45.2856987 92.9037287,45.2663175 C93.5550524,45.2467136 93.5876852,44.2101542 93.7046748,43.4373571 C94.367764,39.0625552 95.5105773,35.1856492 96.8136686,31.9278274 C97.3302433,32.058372 97.8417121,32.1187433 98.3147764,32.1044858 C102.307519,31.9855255 106.935158,27.1981492 106.784204,22.1008967 C106.704731,19.4095849 105.679351,17.500872 103.960247,17.5521096 C101.446635,17.6269611 97.8319445,21.4408225 94.929625,26.2277532 C94.6703387,24.2854017 96.1965316,21.2942383 97.498069,19.2032977 C98.4122308,17.7347829 98.2521748,15.9886938 97.872347,16.0000552 C97.3402329,16.015872 92.1895814,20.3917878 92.3671748,26.3941641 C92.4018055,27.5601542 92.7046022,28.5387928 93.2069694,29.3372086" id="Fill-14"></path>
                </g>
            </g>
        </g>
    </g>
</svg>