<?xml version="1.0" encoding="UTF-8"?>
<svg width="100px" height="33px" viewBox="0 0 100 33" version="1.1" xmlns="http://www.w3.org/2000/svg" xmlns:xlink="http://www.w3.org/1999/xlink">
    <!-- Generator: Sketch 52.1 (67048) - http://www.bohemiancoding.com/sketch -->
    <title>Custom WEB Copy 22</title>
    <desc>Created with Sketch.</desc>
    <g id="Promeθeus" stroke="none" stroke-width="1" fill="none" fill-rule="evenodd">
        <g id="Custom-WEB-Copy-22" transform="translate(-258.000000, -4018.000000)">
            <rect fill="#161825" x="0" y="0" width="1440" height="7093"></rect>
            <path d="M334.946508,4039.50307 L331.133315,4039.50307 L328.573755,4031.14398 L328.530921,4031.14398 L328.673368,4039.50307 L326.015688,4039.50307 L326.015688,4029.0573 L329.988262,4029.0573 L332.354075,4037.08718 L332.40936,4037.08718 L332.269404,4029.0573 L334.946508,4029.0573 L334.946508,4039.50307 Z M323.139856,4036.60697 C323.143841,4036.80499 323.124416,4037.20005 323.113458,4037.30154 C322.950093,4039.04069 321.699449,4039.92437 319.404362,4039.92437 C317.100807,4039.92437 315.84867,4039.04069 315.6863,4037.30154 C315.675343,4037.20005 315.65542,4036.80499 315.660401,4036.60846 L315.660401,4029.05482 L318.400759,4029.05482 L318.400759,4036.84707 C318.397771,4037.02084 318.406238,4037.15005 318.42367,4037.23966 C318.458037,4037.41293 318.630866,4037.97532 319.404362,4037.97532 C320.175368,4037.97532 320.349193,4037.41293 320.385054,4037.24114 C320.400494,4037.15005 320.409459,4037.01391 320.409459,4036.84707 L320.409459,4029.05482 L323.139856,4029.05482 C323.139856,4029.05482 323.139856,4036.60846 323.139856,4036.60697 Z M313.21938,4037.56541 C312.927513,4039.61001 310.912837,4039.96645 309.488866,4039.96645 C307.125046,4039.96645 305.662724,4038.96247 305.662724,4036.91787 L305.664219,4036.08419 L308.528595,4036.08419 L308.530588,4037.12282 C308.530588,4037.6867 308.930535,4038.03225 309.548136,4038.03225 C310.099495,4038.03225 310.421744,4037.81195 310.533809,4037.36045 C310.585109,4037.15005 310.607522,4036.84311 310.514882,4036.61192 C309.987928,4035.29902 306.266878,4034.65594 305.814634,4032.52668 C305.710539,4032.044 305.703566,4031.63409 305.788735,4031.11626 C306.103513,4029.18651 307.967275,4028.78502 309.466952,4028.78502 C310.808741,4028.78502 311.785448,4029.07611 312.371174,4029.6583 C312.807977,4030.09346 313.029119,4030.68951 313.029119,4031.43161 L313.029119,4032.19301 L310.35052,4032.19301 L310.35052,4031.52121 C310.35052,4030.94595 309.991913,4030.61278 309.414655,4030.61278 C308.902145,4030.61278 308.592348,4030.83902 308.491739,4031.28458 C308.47082,4031.37814 308.450399,4031.59696 308.504688,4031.81528 C308.791574,4032.98511 312.772117,4033.70047 313.207924,4035.85052 C313.26321,4036.12577 313.34041,4036.71489 313.21938,4037.56541 Z M300.448473,4039.6105 L300.384222,4030.44644 L300.337902,4030.44644 L298.621567,4039.6105 L295.884695,4039.6105 L294.177325,4030.44644 L294.129013,4030.44644 L294.066755,4039.6105 L291.354288,4039.6105 L291.588877,4029.0573 L295.951436,4029.0573 L297.221504,4036.89708 L297.283762,4036.89708 L298.55632,4029.0573 L302.916887,4029.0573 L303.150978,4039.6105 L300.448473,4039.6105 Z M286.421941,4039.6105 L285.038813,4030.26574 L284.989006,4030.26574 L283.570016,4039.6105 L280.653342,4039.6105 L282.614228,4029.0573 L287.371753,4029.0573 L289.321183,4039.6105 L286.421941,4039.6105 Z M357.938225,4025.85624 C356.578505,4018.09617 333.119104,4015.67433 305.538208,4020.44721 C293.955188,4022.4522 283.496303,4025.41019 275.351431,4028.73848 C276.602075,4028.76571 277.530469,4029.05086 278.093782,4029.60979 C278.53457,4030.04841 278.757206,4030.6504 278.757206,4031.40042 L278.757206,4032.17024 L276.053206,4032.17024 L276.053206,4031.49003 C276.053206,4030.92368 275.711533,4030.57268 275.105885,4030.57268 C274.597858,4030.57268 274.283578,4030.8009 274.183467,4031.25042 C274.155077,4031.37616 274.147108,4031.59102 274.194424,4031.78706 C274.4838,4032.96333 278.499706,4033.69304 278.937506,4035.86388 C278.994285,4036.1431 279.072481,4036.73965 278.949957,4037.59561 C278.69943,4039.34515 277.152437,4040.02091 275.183085,4040.02091 C272.434259,4040.02091 271.317596,4038.72632 271.317596,4036.94312 L271.319588,4036.09854 L274.218829,4036.09854 L274.220324,4037.15005 C274.220324,4037.74115 274.652645,4038.0674 275.241359,4038.0674 C275.798694,4038.0674 276.124928,4037.84413 276.23749,4037.38719 C276.289787,4037.17728 276.312698,4036.86836 276.217568,4036.63172 C275.681649,4035.29357 271.930715,4034.66881 271.469506,4032.50589 C271.366406,4032.01925 271.357939,4031.60587 271.443606,4031.08259 C271.489926,4030.79843 271.577586,4030.55634 271.683674,4030.33455 C262.648261,4034.53415 257.363284,4039.15455 258.061572,4043.14424 C259.422786,4050.9053 282.881689,4053.32516 310.461589,4048.55228 C322.585509,4046.45422 333.484684,4043.31454 341.78047,4039.79565 C341.659938,4039.8011 341.543888,4039.81397 341.419372,4039.81397 C339.531702,4039.81397 337.846247,4039.11099 337.671426,4037.19312 C337.640048,4036.8441 337.634569,4036.69806 337.633573,4036.49855 L337.634569,4032.09053 C337.634569,4031.90043 337.656982,4031.56676 337.678399,4031.39448 C337.902031,4029.54097 339.376306,4028.7766 341.419372,4028.7766 C343.000731,4028.7766 344.940199,4029.2276 345.152874,4031.39547 C345.181263,4031.66825 345.178275,4031.95835 345.177777,4032.05439 C345.177777,4032.05489 345.177777,4032.05489 345.177777,4032.05637 L345.177777,4032.47074 L342.445886,4032.47074 L342.445886,4031.84894 C342.445886,4031.83558 342.442399,4031.60339 342.411519,4031.45834 C342.367191,4031.23705 342.177428,4030.72417 341.398951,4030.72417 C340.630435,4030.72417 340.431209,4031.23854 340.381402,4031.45933 C340.353511,4031.58062 340.339565,4031.75488 340.339565,4031.94796 L340.339565,4036.73915 C340.337075,4036.90549 340.345542,4037.0352 340.362476,4037.13124 C340.376422,4037.20748 340.513888,4037.86739 341.407916,4037.86739 C342.296466,4037.86739 342.432936,4037.20748 342.445886,4037.13124 C342.469295,4037.00153 342.472283,4036.84707 342.471287,4036.73915 L342.471287,4035.25446 L341.395963,4035.25446 L341.395963,4033.65542 L345.196703,4033.65542 C345.196703,4033.65542 345.196703,4036.49855 345.196703,4036.49954 C345.195707,4036.69311 345.192719,4036.83668 345.159846,4037.19312 C345.114024,4037.6961 344.954643,4038.12185 344.704614,4038.48622 C353.505438,4034.33415 358.627548,4029.7885 357.938225,4025.85624 Z" id="Fill-1" fill="#FFFFFF" opacity="0.5"></path>
            <path d="M1269,4174 L1269,4192 L1267,4192 L1267,4174 L1249,4174 L1249,4172 L1267,4172 L1267,4154 L1269,4154 L1269,4174 Z M1267,4447 L1249,4447 L1249,4445 L1267,4445 L1267,4427 L1269,4427 L1269,4447 L1267,4447 Z M1269,3901 L1269,3919 L1267,3919 L1267,3901 L1249,3901 L1249,3899 L1269,3899 L1269,3901 Z M993,4172 L993,4154 L994,4154 L993,4154 L993,4172 L995,4172 L995,4154 L994,4154 L995,4154 L995,4172 L1013,4172 L1013,4174 L995,4174 L995,4192 L993,4192 L993,4174 L975,4174 L975,4172 L993,4172 Z M993,4445 L993,4427 L995,4427 L995,4445 L1013,4445 L1013,4447 L993,4447 L975,4447 L975,4445 L993,4445 Z M993,3899 L995,3899 L1013,3899 L1013,3901 L995,3901 L995,3919 L993,3919 L993,3901 L975,3901 L975,3899 L993,3899 Z M718,4172 L720,4172 L720,4154 L719,4154 L720,4154 L720,4172 L738,4172 L738,4174 L720,4174 L720,4192 L718,4192 L718,4174 L700,4174 L700,4172 L718,4172 L718,4154 L719,4154 L718,4154 L718,4172 Z M718,4447 L700,4447 L700,4445 L718,4445 L718,4427 L720,4427 L720,4445 L738,4445 L738,4447 L718,4447 Z M718,3899 L720,3899 L738,3899 L738,3901 L720,3901 L720,3919 L718,3919 L718,3901 L700,3901 L700,3899 L718,3899 Z M443,4447 L425,4447 L425,4445 L443,4445 L443,4427 L445,4427 L445,4445 L463,4445 L463,4447 L443,4447 Z M443,3899 L445,3899 L463,3899 L463,3901 L445,3901 L445,3919 L443,3919 L443,3901 L425,3901 L425,3899 L443,3899 Z M443,4172 L443,4154 L445,4154 L445,4172 L463,4172 L463,4174 L445,4174 L445,4192 L443,4192 L443,4174 L425,4174 L425,4172 L443,4172 Z M170,4445 L170,4427 L172,4427 L172,4445 L190,4445 L190,4447 L170,4447 L170,4445 Z M170,4174 L170,4172 L170,4154 L172,4154 L172,4172 L190,4172 L190,4174 L172,4174 L172,4192 L170,4192 L170,4174 Z M172,3899 L190,3899 L190,3901 L172,3901 L172,3919 L170,3919 L170,3899 L172,3899 Z" id="Combined-Shape" fill="#292C3F" fill-rule="nonzero" opacity="0.699999988"></path>
        </g>
    </g>
</svg>