<?xml version="1.0" encoding="UTF-8"?>
<svg width="133px" height="23px" viewBox="0 0 133 23" version="1.1" xmlns="http://www.w3.org/2000/svg" xmlns:xlink="http://www.w3.org/1999/xlink">
    <!-- Generator: Sketch 52.1 (67048) - http://www.bohemiancoding.com/sketch -->
    <title>Group 22</title>
    <desc>Created with Sketch.</desc>
    <g id="Promeθeus" stroke="none" stroke-width="1" fill="none" fill-rule="evenodd" opacity="0.5">
        <g id="Custom-WEB-Copy-22" transform="translate(-1061.000000, -4306.000000)" fill="#FFFFFF">
            <g id="Group-22" transform="translate(1061.000000, 4306.000000)">
                <g id="Group-11">
                    <path d="M114.62756,5.45739451 C114.651676,5.42719121 114.684926,5.43313077 114.716349,5.43376264 C115.298528,5.44361978 115.882413,5.39913626 116.462156,5.4651033 C117.038855,5.53069121 117.629073,5.86014725 117.779977,6.58805934 C117.797637,6.67361429 117.827112,6.7574 117.846355,6.84371319 C117.865599,6.93040549 117.887035,6.99068571 117.983496,6.88175165 C118.309176,6.51438352 118.648983,6.16104286 119.058092,5.88971868 C119.614086,5.52083407 120.210028,5.27693297 120.871131,5.18569121 C121.327983,5.12263077 121.779842,5.13476264 122.225855,5.20957582 C123.360496,5.39976813 124.222682,6.00724615 124.760406,7.07952637 C124.889631,7.33707582 124.901323,7.34288901 125.067573,7.11554286 C125.536849,6.47343846 126.120612,5.98007582 126.820688,5.63444396 C127.288503,5.40343297 127.778849,5.26176813 128.294406,5.18720769 C128.76624,5.11909231 129.234541,5.13425714 129.697605,5.20439451 C131.061221,5.41076264 132.046054,6.13311429 132.544317,7.50641648 C132.741381,8.04944396 132.833823,8.61092198 132.893624,9.18225714 C132.896304,9.2093011 132.893503,9.23811429 132.919201,9.25656484 L132.919201,18.0469879 C132.336291,18.0455978 131.753137,18.0567187 131.170836,18.0392791 C130.699733,18.0251253 130.251163,17.9160648 129.926701,17.5171033 C129.691028,17.2274549 129.585919,16.8787901 129.584458,16.5078835 C129.576176,14.5995154 129.577272,12.6908945 129.57581,10.7825264 C129.575323,10.3111527 129.556201,9.84104286 129.453772,9.38028462 C129.332221,8.83321319 129.01665,8.42211978 128.350432,8.38420769 C127.345259,8.32696044 126.645791,8.83005385 126.118906,9.66007582 C125.805041,10.1541967 125.649874,10.7120099 125.52881,11.2835978 C125.43649,11.7189549 125.409329,12.1587352 125.409573,12.6025593 C125.410426,14.3557407 125.407746,16.108922 125.413958,17.8621033 C125.414445,18.019944 125.368772,18.0500209 125.227855,18.0491363 C124.233278,18.0430703 123.238823,18.0435758 122.244246,18.0487571 C122.112708,18.0495154 122.062041,18.0295484 122.062528,17.8722132 C122.068618,15.4589824 122.070932,13.0454989 122.064599,10.6321418 C122.063381,10.1467407 122.026112,9.66197143 121.835624,9.2050044 C121.562804,8.55064176 121.037624,8.33252088 120.403195,8.37296044 C119.701535,8.41757033 119.197547,8.8110978 118.798669,9.37434505 C118.436695,9.88577912 118.217951,10.463433 118.079105,11.0802626 C117.949637,11.6556418 117.904329,12.2364549 117.905426,12.8249769 C117.908471,14.5059989 117.904695,16.1870209 117.910419,17.8680429 C117.911028,18.016911 117.873272,18.0502736 117.733695,18.0495154 C116.73924,18.042944 115.744541,18.0435758 114.750086,18.0490099 C114.616721,18.0497681 114.567394,18.0255044 114.568003,17.8705703 C114.574214,16.3171857 114.571535,14.7636747 114.572509,13.2101637 C114.572509,13.1559495 114.559355,13.0989549 114.590169,13.0477736 C114.611727,13.0692571 114.610874,13.096933 114.610874,13.1248615 C114.61124,14.7160319 114.610874,16.3072022 114.609047,17.8983725 C114.607221,17.9206143 114.643394,17.8991308 114.622201,17.9025429 C114.617086,17.9033011 114.614772,17.9006473 114.614163,17.8945813 C114.609169,17.8452956 114.612214,17.7958835 114.612214,17.7465978 C114.611971,13.7156582 114.611971,9.68459231 114.612823,5.65365275 C114.612823,5.58831758 114.597112,5.52058132 114.62756,5.45739451" id="Fill-1"></path>
                    <path d="M54.4576782,0 C54.6987103,0.0803736264 54.9453449,0.14078022 55.1687167,0.275494505 C55.8925436,0.712368132 56.2931269,1.59331868 56.1514795,2.45442857 C56.0112936,3.30656593 55.3735756,3.99416484 54.5648577,4.16514835 C53.4376462,4.40374176 52.3749859,3.67001648 52.1607487,2.46832967 C51.9552808,1.31656044 52.6803256,0.258434066 53.7612551,0.0315934066 C53.7915821,0.0252747253 53.8264154,0.0322252747 53.8479731,0 L54.4576782,0 Z" id="Fill-4"></path>
                    <path d="M51.5499474,18.0476647 C50.4488,18.0213341 49.3799282,18.0817407 48.3123962,18.0146363 C47.7152359,17.9771033 47.2624026,17.6714055 46.9487808,17.1491033 C46.6047103,16.5759989 46.3276269,15.9647297 46.0200949,15.3709 C45.6392423,14.6357846 45.261191,13.8990264 44.8923962,13.1574659 C44.7872872,12.9460429 44.6304154,12.8482297 44.4155692,12.8205538 C44.2616205,12.8005868 44.1076718,12.7866857 43.9521397,12.7909824 C43.7064795,12.7978066 43.7371718,12.7513011 43.7369282,13.0072077 C43.7357103,14.4998066 43.7363192,15.9922791 43.736441,17.484878 C43.736441,17.6235099 43.7314474,17.7625209 43.7381462,17.9009 C43.7431397,18.0042736 43.7189026,18.0455978 43.6068513,18.0450923 C42.5214154,18.0406692 41.4358577,18.040922 40.3503,18.0448396 C40.2496974,18.0452187 40.2199795,18.0147626 40.2241205,17.9141692 C40.2306974,17.7535484 40.2264346,17.5922956 40.2264346,17.4315484 C40.2265564,11.8719934 40.2264346,6.31243846 40.2269218,0.752757143 C40.2269218,0.505191209 40.2026846,0.535647253 40.4288577,0.538427473 C41.0647487,0.546136264 41.7011269,0.514416484 42.3366526,0.562438462 C43.0670564,0.617663736 43.503691,0.958367033 43.6671397,1.61462527 C43.722191,1.83527363 43.7354667,2.06337802 43.7357103,2.29047143 C43.7369282,4.66528462 43.736441,7.03997143 43.736441,9.41478462 C43.736441,9.64023516 43.7365628,9.64288901 43.9617615,9.6396033 C44.1432359,9.63707582 44.3251974,9.63353736 44.5061846,9.61938352 C44.7982487,9.59638352 45.0240564,9.47190549 45.19055,9.20083407 C45.9472615,7.96881758 46.7171269,6.74539451 47.4787103,5.51653736 C47.5308385,5.43237253 47.5826013,5.39572418 47.6812551,5.3961033 C48.9217359,5.39964176 50.1624603,5.39837802 51.4030628,5.39863077 C51.4281526,5.39863077 51.4533641,5.40103187 51.5043962,5.40355934 C51.4059859,5.55773516 51.3197551,5.69485055 51.2318192,5.83057582 C50.2373641,7.3650044 49.2431526,8.89955934 48.2476013,10.4331033 C48.0892679,10.6770044 47.9130308,10.906878 47.712191,11.1153945 C47.6723641,11.1568451 47.6308321,11.1885648 47.6897808,11.2483396 C48.1471205,11.7122571 48.3908321,12.3175868 48.6698641,12.8930923 C49.4428962,14.4867901 50.3573321,15.9944275 51.2441205,17.5191253 C51.3399731,17.6841692 51.4353385,17.8495923 51.5499474,18.0476647" id="Fill-7"></path>
                    <path d="M61.432225,6.82813132 C61.6347699,6.6317467 61.8124686,6.42550495 62.0184237,6.24896099 C62.8561288,5.53153791 63.8223276,5.17263681 64.9004558,5.12309835 C65.6425519,5.08897747 66.3731994,5.15848297 67.0740071,5.43182912 C68.1931801,5.86832363 68.8881417,6.71527967 69.2457314,7.88057088 C69.4434045,8.52469725 69.5202571,9.18866429 69.5224494,9.86185659 C69.5261032,11.0381423 69.5218404,12.2145544 69.5241545,13.3909665 C69.526834,14.871939 69.5330455,16.3531643 69.5368212,17.8343896 C69.5374301,18.0741203 69.5608147,18.0445489 69.3280647,18.0415159 C68.7348019,18.0343126 68.1411737,18.0641368 67.5483981,18.0197797 C66.6248276,17.9506533 66.0810135,17.3793181 66.0414301,16.4171093 C66.0031865,15.4857357 66.029616,14.5534775 66.0263276,13.6215984 C66.0226737,12.57295 66.0299814,11.5241753 66.0242571,10.4755269 C66.0225519,10.1603511 65.9958788,9.84605989 65.9195135,9.53745549 C65.7487571,8.84846648 65.3267378,8.51370275 64.6407891,8.49045 C63.2781481,8.44432363 62.0561801,9.2585489 61.6502378,10.9340104 C61.5519494,11.339417 61.5038404,11.7511423 61.5029878,12.1672907 C61.499334,14.059483 61.4992122,15.9515489 61.504084,17.8436148 C61.5045712,17.998928 61.474975,18.0482137 61.3143276,18.0468236 C60.2715199,18.0382302 59.2287122,18.0396203 58.1859045,18.0456863 C58.0498596,18.0464445 58.0213596,18.004994 58.0213596,17.8700269 C58.0235519,14.191417 58.0214814,10.5125544 58.0195327,6.83381813 C58.0192891,6.39568077 58.016366,5.95729066 58.0142955,5.51902692 C58.0140519,5.45230165 58.0004109,5.38898846 58.1057635,5.3921478 C58.725334,5.41059835 59.3467314,5.35512033 59.9647186,5.42247747 C60.6429942,5.49653242 61.2344301,5.85404341 61.3934942,6.71085659 C61.4000712,6.7467467 61.4163917,6.78099396 61.432225,6.82813132" id="Fill-9"></path>
                    <path d="M99.6780801,8.74441044 C99.6780801,9.04404231 99.6741827,9.34380055 99.6801506,9.64330604 C99.6820994,9.74769066 99.6602981,9.78926758 99.5490994,9.78813022 C98.992984,9.78256978 98.4363814,9.80064121 97.8806314,9.78130604 C97.2824968,9.7604544 96.8273494,9.44313022 96.6539135,8.78118516 C96.5860737,8.52186648 96.3633109,8.4077511 96.1424968,8.32763022 C94.9788686,7.90528956 93.5603237,8.29414121 92.7689006,9.28099286 C92.428484,9.70560824 92.2088878,10.1935368 92.0853878,10.7345423 C91.9500737,11.3271082 91.9294904,11.9211907 92.042516,12.5136302 C92.2453045,13.5760533 92.8012981,14.3739764 93.7532468,14.8490148 C94.4664776,15.2050093 95.2261122,15.2995368 95.9974391,15.1720258 C96.7679135,15.0446412 97.4560545,14.6919324 98.0815929,14.2061522 C98.3501506,13.9976357 98.6083558,13.7791357 98.8284391,13.5161522 C98.8862917,13.4470258 98.9151571,13.4342621 98.9663109,13.5227236 C99.409766,14.2898115 99.8563878,15.0550038 100.302644,15.8203225 C100.355138,15.9103005 100.330779,15.9744984 100.265253,16.051839 C99.8495673,16.5422951 99.3550801,16.9316522 98.8235673,17.2733665 C98.2387083,17.6497071 97.6076891,17.9230533 96.9430545,18.097828 C96.023625,18.3395808 95.0911635,18.3777456 94.1477404,18.2546577 C93.1465865,18.1241137 92.2160737,17.7954159 91.3731314,17.2252181 C90.2661378,16.476328 89.4741058,15.4592731 89.0111635,14.1665973 C88.7081378,13.3201467 88.5747724,12.4476632 88.6014455,11.5507896 C88.6530865,9.80443242 89.2275929,8.27948187 90.4418878,7.04443242 C91.144766,6.32941044 91.9752853,5.83061374 92.9148109,5.51783901 C93.6008814,5.28935549 94.3012019,5.17422912 95.0182083,5.15186099 C95.9940288,5.12153132 96.940984,5.28240495 97.8406827,5.67441593 C98.5048301,5.96368516 99.0899327,6.37275659 99.4416763,7.06048187 C99.6069519,7.3837456 99.6862404,7.72849286 99.6801506,8.09510275 C99.6764968,8.3114544 99.6795417,8.52805879 99.6795417,8.74441044 L99.6780801,8.74441044 Z" id="Fill-11"></path>
                    <path d="M52.5483974,11.721533 C52.5483974,9.66391758 52.5482756,7.6063022 52.5488846,5.54868681 C52.5488846,5.4758956 52.5245256,5.39274176 52.6520449,5.39640659 C53.2875705,5.4140989 53.9243141,5.3662033 54.5589872,5.42218681 C55.4036346,5.49674725 55.9188269,6.03686813 56.0035962,6.91516484 C56.0191859,7.07553297 56.02625,7.2353956 56.02625,7.3963956 C56.0257628,10.8851923 56.0250321,14.373989 56.0292949,17.8629121 C56.0295385,18.0081154 55.9990897,18.0472912 55.854641,18.0462802 C54.8121987,18.0388242 53.7697564,18.0385714 52.7274359,18.046533 C52.5795769,18.0476703 52.5555833,18.0017967 52.5559487,17.861522 C52.5603333,15.8149011 52.5588718,13.7681538 52.5588718,11.7214066 C52.5554615,11.721533 52.5519295,11.721533 52.5483974,11.721533" id="Fill-13"></path>
                    <path d="M86.0224269,18.1805269 C84.9475872,18.2210929 83.9866256,17.2665929 83.9899141,16.0747632 C83.9932026,14.8895049 84.936991,13.97595 86.0118308,13.9681148 C87.1257667,13.9599005 88.0612731,14.945994 88.0581064,16.081461 C88.0549397,17.2077027 87.1413564,18.2181863 86.0224269,18.1805269" id="Fill-15"></path>
                    <path d="M82.6189423,17.4126681 C82.5856923,17.3157396 82.6011603,17.2151462 82.6011603,17.1164484 C82.6004295,13.2849264 82.6009167,9.4534044 82.6011603,5.62175604 C82.6011603,5.39213516 82.6011603,5.39264066 82.3748654,5.39264066 C81.8672244,5.39251429 81.3594615,5.39188242 80.8518205,5.3915033 C80.8963974,5.34562967 80.9530321,5.36584945 81.0041859,5.36572308 C81.501109,5.36408022 81.9980321,5.36774505 82.4948333,5.36218462 C82.6021346,5.36079451 82.6417179,5.38265714 82.6415962,5.50523956 C82.6369679,9.39729451 82.636359,13.2893495 82.6341667,17.1814044 C82.6340449,17.2584923 82.6243013,17.3355802 82.6189423,17.4126681" id="Fill-17"></path>
                    <path d="M114.627262,5.45739451 L114.627262,18.0133725 C114.579588,17.9247846 114.596286,17.8636198 114.596165,17.8054879 C114.594955,16.2915319 114.595197,14.7777022 114.594834,13.2637462 C114.594713,13.1917132 114.591809,13.1198066 114.590115,13.0477736 C114.588905,11.549867 114.587332,10.0518341 114.586485,8.55392747 C114.586001,7.59968022 114.58588,6.64530659 114.588421,5.69105934 C114.588663,5.61296044 114.558171,5.52475165 114.627262,5.45739451" id="Fill-19"></path>
                    <path d="M7.84188462,14.2286341 C7.43362821,14.7686286 6.86728205,14.9959747 6.22871154,15.0093703 C5.27201282,15.0290846 4.31458333,15.012656 3.35751923,15.0173319 C3.25338462,15.017711 3.23584615,14.9815681 3.23645513,14.8846396 C3.24023077,14.2855022 3.23840385,13.6861121 3.23840385,13.0869747 L3.24266667,13.0869747 C3.24266667,12.5153868 3.23194872,11.9436725 3.24534615,11.3724637 C3.26203205,10.6600956 3.63362821,10.2960132 4.31555769,10.2960132 C4.91990385,10.2960132 5.52449359,10.2841341 6.12847436,10.2990462 C6.90296795,10.3182549 7.56005128,10.5957714 7.98548077,11.3090242 C8.48228205,12.1417 8.41760897,13.4671066 7.84188462,14.2286341 M3.23840385,5.94850769 L3.24230128,5.94850769 C3.24230128,5.47182637 3.23109615,4.99476593 3.24498077,4.51833736 C3.26532051,3.82467253 3.57565385,3.46362308 4.24016667,3.42798571 C4.88397436,3.39335934 5.53362821,3.36024945 6.17536538,3.4592 C6.97494872,3.58254066 7.4978141,4.10282088 7.65164103,4.92273297 C7.78658974,5.64268352 7.69573077,6.32737582 7.24947436,6.92133187 C6.89188462,7.39712857 6.39008974,7.58163407 5.82715385,7.58883736 C5.00978846,7.59932637 4.19217949,7.58921648 3.37457051,7.5943978 C3.26008333,7.59515604 3.23426282,7.55926593 3.23572436,7.44552967 C3.24169231,6.94648022 3.23840385,6.44755714 3.23840385,5.94850769 M9.53069231,8.98438132 C9.41194231,8.91866703 9.29708974,8.84537033 9.17042308,8.76967253 C9.25689744,8.69182637 9.32826923,8.62535385 9.40207692,8.56178791 C9.67380128,8.32736484 9.93139744,8.07929341 10.146,7.78547473 C10.7905385,6.9025022 11.0375385,5.90023297 10.9799295,4.8065956 C10.8972308,3.23703516 10.194109,2.06365604 8.87507051,1.29492527 C7.94942949,0.755562637 6.93597436,0.5612 5.88878205,0.550458242 C4.50945513,0.536304396 3.12988462,0.541359341 1.7503141,0.549447253 C1.19030128,0.552732967 0.73125641,0.795496703 0.374762821,1.24791429 C0.177455128,1.49838681 0.0833076923,1.79473297 0,2.09765055 L0,17.9802879 C0.0587051282,17.9788978 0.117532051,17.9758648 0.176237179,17.9758648 C2.09036538,17.9757385 4.00461538,17.9771286 5.91874359,17.9751066 C6.74633974,17.9744747 7.55798077,17.8560626 8.34233974,17.5767769 C9.49598077,17.1660626 10.4479295,16.4780846 11.0531282,15.3528538 C11.6533333,14.236722 11.7863333,13.0381945 11.5332436,11.7991011 C11.2786923,10.5530571 10.6295256,9.59261758 9.53069231,8.98438132" id="Fill-21"></path>
                    <path d="M78.9690301,13.1238632 C78.6370173,14.0586489 77.9038122,14.5967478 76.9383442,14.610017 C75.7316006,14.626572 74.8917032,14.0165665 74.5120686,12.8248632 C74.1796904,11.7813962 74.1670237,10.7316104 74.5590814,9.70267637 C74.9113122,8.7782533 75.5936071,8.30928077 76.5475045,8.27566538 C77.0475942,8.25809945 77.5413506,8.30839615 77.9972288,8.54850604 C78.6273955,8.88061593 78.9349276,9.45826978 79.0960622,10.1400555 C79.1945942,10.556583 79.2227288,10.9818302 79.2260173,11.4463797 C79.2194404,11.9938302 79.1657288,12.5698412 78.9690301,13.1238632 M82.4692929,5.37488516 C82.0846647,5.38347857 81.6997929,5.37589615 81.3150429,5.37905549 C81.1606071,5.38031923 81.0054404,5.36174231 80.8517353,5.39156648 C80.2151135,5.40155 79.7761647,5.72279176 79.5097994,6.32104451 C79.2685237,6.0958467 79.0214019,5.8941544 78.7450494,5.73403901 C77.6860429,5.12062143 76.5415365,4.9736489 75.3642673,5.14210495 C73.3131199,5.43579725 71.9190558,6.63040714 71.186216,8.62243462 C70.5845494,10.2572038 70.5685942,11.9370885 71.0189917,13.6160885 C71.3248186,14.7564841 71.8934788,15.7406819 72.7736904,16.5092863 C73.8702096,17.4665665 75.1539276,17.834061 76.5676006,17.7646819 C77.4971391,17.7188082 78.3509212,17.4496324 79.0786455,16.822061 C79.0970365,16.8062643 79.1154276,16.7787148 79.1545237,16.7989346 C79.1718186,17.0209731 79.1606135,17.2460445 79.1373506,17.4702313 C79.0461263,18.3451159 78.6502929,19.0084511 77.8643506,19.3806214 C77.0093506,19.7852698 76.1122096,19.7653027 75.2082481,19.6267973 C74.7056006,19.5498357 74.226825,19.3772093 73.7409853,19.2306159 C73.1482096,19.0516709 72.7479917,19.248561 72.4754147,19.8198962 C72.4493506,19.8744896 72.4229212,19.929083 72.4012417,19.985572 C72.1943122,20.5241764 71.9911583,21.0644236 71.7796006,21.6011324 C71.7355109,21.712594 71.7575558,21.7580885 71.8582801,21.8145775 C72.7539596,22.3155225 73.7081006,22.6341104 74.7082801,22.8107808 C74.9953506,22.861583 75.2848571,22.8984841 75.5732673,22.9415775 L76.8890173,22.9415775 C76.9104532,22.9074566 76.9450429,22.9154181 76.9757353,22.9132698 C77.3970237,22.882561 77.8121006,22.8098962 78.2213314,22.7042478 C79.3055494,22.4244566 80.2905045,21.9429731 81.0945942,21.1205335 C82.0895365,20.1030995 82.5449276,18.8407533 82.6189788,17.4127313 C82.6144724,17.3461324 82.6167865,17.2796599 82.6167865,17.213061 C82.6166647,13.3533577 82.6166647,9.49378077 82.6166647,5.63407747 C82.6166647,5.60084121 82.6126455,5.5668467 82.6173955,5.53436868 C82.6352994,5.41229176 82.5927929,5.37210495 82.4692929,5.37488516" id="Fill-24"></path>
                    <path d="M109.950113,11.5913302 C109.94853,12.5309181 109.775947,13.2975005 109.308133,13.9709456 C108.915588,14.5357093 108.391992,14.9023192 107.735639,15.0639511 C107.071492,15.2272258 106.41794,15.1893137 105.796421,14.9032038 C105.168569,14.6143137 104.717562,14.1199401 104.420017,13.4766984 C104.140133,12.8721269 104.023331,12.2276214 104.047934,11.5650445 C104.084107,10.591083 104.342312,9.69458846 105.048601,9.00029176 C105.682421,8.37714341 106.452652,8.14929176 107.308748,8.24306099 C108.535831,8.37739615 109.312274,9.11567088 109.733806,10.2794456 C109.89896,10.7354016 109.972889,11.2192863 109.950113,11.5913302 M113.193146,9.9948522 C113.077562,9.46395659 112.886466,8.95681923 112.638004,8.47407198 C112.093581,7.41619835 111.318601,6.59059945 110.313549,6.00334121 C109.522613,5.54119286 108.671267,5.28124231 107.765844,5.17887967 C107.149197,5.1092478 106.538639,5.12239066 105.930396,5.2108522 C105.276844,5.30601154 104.646799,5.50012143 104.050126,5.80025879 C103.035088,6.31080824 102.209319,7.04832473 101.606556,8.03884121 C100.928158,9.15408846 100.615024,10.3792808 100.634146,11.6967258 C100.641088,12.0237808 100.647908,12.3479291 100.689319,12.6747313 C100.78103,13.3975885 100.975537,14.0837973 101.28246,14.7362643 C101.737363,15.7032753 102.395056,16.4942478 103.250665,17.0999566 C104.176915,17.7554566 105.211197,18.1087973 106.323184,18.2154566 C107.427742,18.3213577 108.506357,18.1798192 109.539421,17.7593742 C110.542524,17.3511874 111.389607,16.7092093 112.058139,15.8253522 C112.529851,15.2014456 112.874165,14.5099291 113.092178,13.7481489 C113.233703,13.2532698 113.312504,12.7509346 113.357812,12.2368467 C113.424312,11.4772148 113.353428,10.7313577 113.193146,9.9948522" id="Fill-26"></path>
                    <path d="M35.5713372,11.7089462 C35.5664654,12.5780176 35.3836513,13.3933802 34.8490936,14.0850231 C34.2351256,14.8792813 33.4150808,15.1988802 32.4481513,15.157556 C31.0847795,15.0992978 30.0447731,14.0982923 29.75685,12.6171934 C29.5508949,11.5576769 29.6446769,10.5282374 30.2021321,9.5889022 C30.8181705,8.55049011 31.8535487,8.07974835 33.0142538,8.24681429 C34.3062538,8.43270989 35.0649141,9.2639956 35.4273756,10.5254571 C35.5379654,10.9102648 35.5792538,11.3066989 35.5713372,11.7089462 M35.61835,5.84508352 C33.9534141,4.99875934 32.2065103,4.90953956 30.4482795,5.49376484 C28.6451064,6.09302857 27.3835551,7.32744615 26.6907859,9.16239121 C26.2065295,10.4449571 26.1273628,11.7717538 26.3832538,13.1158637 C26.67885,14.6686165 27.4151,15.9529516 28.6379205,16.9152868 C29.8082474,17.8362978 31.147991,18.2245176 32.6019782,18.2348802 C33.1546833,18.2380396 33.7006897,18.1802868 34.2371962,18.0453198 C36.0896962,17.5788747 37.490459,16.4967374 38.3379077,14.7129736 C39.0250744,13.2670066 39.1595359,11.7347264 38.8326385,10.1647868 C38.4234077,8.19955055 37.3598949,6.7302044 35.61835,5.84508352" id="Fill-28"></path>
                    <path d="M21.4860647,13.6667516 C21.0143532,14.5752516 20.2489942,15.0595154 19.2567314,15.1497462 C17.6564686,15.2954549 16.4867506,14.2399824 16.1456032,12.7082077 C16.1192955,12.589922 16.1006609,12.4693615 16.0814173,12.3495593 C16.0460968,12.1301747 16.0344045,11.9091473 16.0397635,11.6860978 C16.0431737,10.7937736 16.240116,9.96223516 16.7997635,9.26086154 C17.4736545,8.41618022 18.3628788,8.10744945 19.3880263,8.24709231 C20.5445904,8.40480659 21.3136032,9.10668571 21.7011545,10.2274934 C22.1050263,11.3955648 22.0587442,12.5637626 21.4860647,13.6667516 M22.016725,5.85900989 C20.521084,5.08118022 18.9358019,4.94431758 17.3228724,5.34391099 C15.4003404,5.82033956 13.9940968,6.99359231 13.1766096,8.87618022 C12.6338917,10.1261418 12.5120968,11.4421967 12.7041673,12.791867 C12.915725,14.2787791 13.5301801,15.5545209 14.6074558,16.5682901 C15.8453788,17.7332022 17.3310327,18.2201198 18.9795263,18.2352846 C19.6196801,18.2397077 20.2494814,18.1602187 20.8636929,17.9786198 C22.6445776,17.4525264 23.9710455,16.3485264 24.7603981,14.5985044 C25.3852058,13.2134495 25.5117506,11.7544659 25.222366,10.2647736 C24.8350583,8.27034505 23.7781224,6.77483956 22.016725,5.85900989" id="Fill-30"></path>
                </g>
            </g>
        </g>
    </g>
</svg>