<?xml version="1.0" encoding="UTF-8"?>
<svg width="200px" height="200px" viewBox="0 0 200 200" version="1.1" xmlns="http://www.w3.org/2000/svg" xmlns:xlink="http://www.w3.org/1999/xlink">
    <!-- Generator: Sketch 52.1 (67048) - http://www.bohemiancoding.com/sketch -->
    <title>Planet 1 Copy 2</title>
    <desc>Created with Sketch.</desc>
    <g id="Promeθeus" stroke="none" stroke-width="1" fill="none" fill-rule="evenodd">
        <g id="Planet-1-Copy-2" transform="translate(-248.000000, -352.000000)">
            <rect fill="#161825" x="0" y="0" width="1440" height="884"></rect>
            <g id="Group-15" transform="translate(277.000000, 375.000000)" fill-rule="nonzero" stroke-width="2">
                <g id="Group-13-Copy">
                    <g id="Group-12" transform="translate(0.000000, 62.000000)" stroke="#41435A">
                        <polyline id="Rectangle" points="0 54.6361299 0 23.4479898 35.5 8.52651283e-14 71 23.4479898 71 55.1614242"></polyline>
                        <polyline id="Rectangle-Copy-2" points="71 63.3308824 35.5 86.7788722 0 63.3308824"></polyline>
                        <polyline id="Rectangle-Copy-3" points="71 23.6691176 35.5 47.1171075 0 23.6691176"></polyline>
                        <path d="M35.5658691,47.1624285 L35.5658691,78.3639706" id="Path"></path>
                    </g>
                    <g id="Group-12-Copy" transform="translate(71.000000, 63.000000)" stroke="#FF6855">
                        <polyline id="Rectangle" points="0 54.6361299 0 23.4479898 35.5 8.52651283e-14 71 23.4479898 71 55.1614242"></polyline>
                        <polyline id="Rectangle-Copy-2" points="71 63.3308824 35.5 86.7788722 0 63.3308824"></polyline>
                        <polyline id="Rectangle-Copy-3" points="71 23.6691176 35.5 47.1171075 0 23.6691176"></polyline>
                        <path d="M35.5658691,47.1624285 L35.5658691,78.3639706" id="Path"></path>
                    </g>
                    <g id="Group-12-Copy" transform="translate(36.000000, 0.000000)" stroke="#41435A">
                        <polyline id="Rectangle" points="0 54.8556752 0 23.5422113 35.5 8.52651283e-14 71 23.5422113 71 55.3830803"></polyline>
                        <polyline id="Rectangle-Copy-3" points="71 23.7642276 35.5 47.3064389 0 23.7642276"></polyline>
                        <path d="M35.5658691,47.3519421 L35.5658691,78.6788618" id="Path"></path>
                    </g>
                </g>
            </g>
            <circle id="Oval-Copy" stroke="#41435A" stroke-width="2" fill="#161825" fill-rule="nonzero" cx="312" cy="438" r="4"></circle>
            <circle id="Oval-Copy" stroke="#41435A" stroke-width="2" fill="#161825" fill-rule="nonzero" cx="348" cy="376" r="4"></circle>
            <circle id="Oval-Copy" stroke="#41435A" stroke-width="2" fill="#161825" fill-rule="nonzero" cx="277" cy="501" r="4"></circle>
            <circle id="Oval-Copy" stroke="#EA6150" stroke-width="2" fill="#161825" fill-rule="nonzero" cx="384" cy="438" r="4"></circle>
            <circle id="Oval-Copy" stroke="#EA6150" stroke-width="2" fill="#161825" fill-rule="nonzero" cx="419" cy="502" r="4"></circle>
        </g>
    </g>
</svg>