<?xml version="1.0" encoding="UTF-8"?>
<svg width="121px" height="19px" viewBox="0 0 121 19" version="1.1" xmlns="http://www.w3.org/2000/svg" xmlns:xlink="http://www.w3.org/1999/xlink">
    <!-- Generator: Sketch 52.1 (67048) - http://www.bohemiancoding.com/sketch -->
    <title>Group 3</title>
    <desc>Created with Sketch.</desc>
    <defs>
        <polygon id="path-1" points="0 0 121 0 121 19 0 19"></polygon>
    </defs>
    <g id="Promeθeus" stroke="none" stroke-width="1" fill="none" fill-rule="evenodd" opacity="0.5">
        <g id="Prometeus" transform="translate(-1073.000000, -4299.000000)">
            <g id="Group-3" transform="translate(1073.000000, 4299.000000)">
                <mask id="mask-2" fill="white">
                    <use xlink:href="#path-1"></use>
                </mask>
                <g id="Clip-2"></g>
                <path d="M23.0016142,0.227420102 L23.0016142,16.5937934 C23.0016142,17.8675313 23.7469062,18.7748958 25.3645131,18.7748958 L27.9250031,18.7748958 L27.9250031,0.227420102 L23.0016142,0.227420102 Z M108.000869,13.5363594 C108.000869,13.5363594 104.88767,4.5081056 104.316295,2.8012969 C103.930218,1.65493284 103.402094,0.227420102 100.867555,0.227420102 L95.0718513,0.227420102 L95.0718513,18.7748958 L97.0377468,18.7748958 C98.5196805,18.7748958 99.4625636,18.1014358 99.4625636,16.5470125 L99.4625636,3.58175081 L99.5413269,3.58175081 L105.16448,18.7748958 L110.429328,18.7748958 L116.054758,3.58175081 L116.135342,3.58175081 L116.135342,16.5581288 C116.135342,17.8740157 116.83283,18.7748958 118.568809,18.7748958 L121,18.7748958 L121,0.227420102 L115.567609,0.227420102 C113.643144,0.227420102 112.461694,0.762853173 111.876661,2.50671607 C111.495137,3.64196387 108.086462,13.5363594 108.086462,13.5363594 L108.000869,13.5363594 Z M10.5087538,13.7040296 C10.5087538,13.7040296 6.27147055,2.4488189 6.03244899,1.79990736 C5.70829022,0.912922649 5.26302719,0.227420102 3.65634701,0.227420102 L0,0.227420102 L7.51438268,18.7748958 L12.9790985,18.7748958 L20.7347792,0.227420102 L17.5259716,0.227420102 C16.1382807,0.227420102 15.6074252,0.831866605 15.261413,1.71283001 L10.585696,13.7040296 L10.5087538,13.7040296 Z M64.3295807,4.11579435 L66.8308845,4.11579435 C68.6169447,4.11579435 69.6827532,3.46086151 69.6827532,1.79203335 L69.6827532,0.227420102 L62.5608212,0.227420102 C56.5934771,0.227420102 53.7370556,3.79898101 53.7370556,9.49837888 C53.7370556,16.6118573 58.0908903,18.7748958 62.5608212,18.7748958 L69.6827532,18.7748958 L69.6827532,17.1940713 C69.6827532,15.5479389 68.5691404,14.8837425 66.9533546,14.8837425 L64.3295807,14.8837425 C61.4863623,14.8837425 58.8603121,13.848541 58.8603121,9.49837888 C58.8603121,5.72116721 60.8507926,4.11579435 64.3295807,4.11579435 Z M45.2233351,11.8212135 C45.2233351,13.6924502 44.3683208,15.1241315 41.9130003,15.1241315 L39.3479575,15.1241315 C37.5659948,15.1241315 36.496544,14.6401112 36.496544,13.1463641 C36.496544,11.720704 37.4826787,11.1658175 39.3479575,11.1658175 L45.2233351,11.1658175 L45.2233351,11.8212135 Z M42.8294773,0.227420102 L32.7564256,0.227420102 L32.7564256,1.65817508 C32.7564256,2.90690134 33.4120276,4.12922649 35.1480071,4.12922649 C35.9219817,4.12922649 41.5797359,4.13385827 41.5797359,4.13385827 C44.2649725,4.13385827 45.2233351,5.01667439 45.2233351,7.20565076 L45.2233351,7.5164428 L38.4164563,7.5164428 C33.3683208,7.5164428 31.5048632,9.89624826 31.5048632,13.1347846 C31.5048632,17.0509495 34.0872067,18.7748958 38.4319358,18.7748958 L42.9583213,18.7748958 C48.8837796,18.7748958 50.1485452,15.7619268 50.1485452,11.7772117 L50.1485452,7.16859657 C50.1485452,2.88466883 48.5855718,0.227420102 42.8294773,0.227420102 Z M81.1803733,15.0754979 C84.382807,15.0754979 86.2635652,12.8383511 86.2635652,9.49837888 C86.2635652,5.99027327 84.27354,3.92172302 81.1803733,3.92172302 C77.9205745,3.92172302 76.0771491,6.15609078 76.0771491,9.49837888 C76.0771491,12.6980083 77.8636646,15.0754979 81.1803733,15.0754979 Z M81.1803733,0 C87.1713919,0 91.4218782,3.32746642 91.4218782,9.49837888 C91.4218782,15.4029643 87.4759737,19 81.1803733,19 C75.0290965,19 70.9320392,15.5548865 70.9320392,9.49837888 C70.9320392,3.5224641 74.9831133,0 81.1803733,0 Z" id="Fill-1" fill="#FFFFFF" mask="url(#mask-2)"></path>
            </g>
        </g>
    </g>
</svg>